<svg xmlns="http://www.w3.org/2000/svg" width="26" height="20" viewBox="0 0 26 20">
  <g transform="translate(-634 -229)">
    <path d="M20,3.239A3.239,3.239,0,0,0,16.761,0H3.239A3.239,3.239,0,0,0,0,3.239V16.761A3.239,3.239,0,0,0,3.239,20H16.761A3.239,3.239,0,0,0,20,16.761ZM14.068,16.385a.32.32,0,0,0,.357-.357v-2.1a.32.32,0,0,0-.357-.357H5.941a.32.32,0,0,0-.357.357v2.1a.32.32,0,0,0,.357.357h8.127ZM10,3.888V6.439A1.659,1.659,0,0,0,8.325,8.155a1.672,1.672,0,1,0,3.343,0V8.135H14.51v.021a4.338,4.338,0,0,1-4.5,4.272A4.343,4.343,0,0,1,5.483,8.155,4.334,4.334,0,0,1,10,3.888Zm4.518,3.124V3.862a.273.273,0,0,0-.273-.273H11.1V7.012Z" transform="translate(637 229)" fill="#acb0b4" fill-rule="evenodd"/>
  </g>
</svg>
