<?xml version="1.0" encoding="UTF-8"?>
<svg xmlns="http://www.w3.org/2000/svg" width="80" height="80" viewBox="0 0 80 80" fill="none">
  <path d="M16.3 24C21.1 24 25.8 24 30.7 24C30.5 24.2 30.3 24.4 30.2 24.6C28.7 26.5 27.2 28.3 25.8 30.3C24.8 31.7 24.3 33.3 24.3 35.1C24.3 38.1 26.3 40.1 29.3 40C31.5 39.9 33.4 39.1 35 37.6C36.8 35.9 38.8 34.6 41.2 33.9C41.7 33.8 42.1 33.9 42.5 34.2C49.5 40.6 56.5 47 63.4 53.4C64.9 54.8 65 56.7 63.7 58.1C62.4 59.4 60.5 59.4 59 58C55.5 54.6 51.9 51.2 48.4 47.7C48.2 47.5 48 47.2 47.8 47.1C47.4 47 46.9 47 46.7 47.2C46.5 47.3 46.6 47.9 46.7 48.2C46.7 48.4 47 48.5 47.2 48.7C50.3 51.7 53.3 54.6 56.4 57.6C58.3 59.4 57.6 62.3 55.2 63.1C53.8 63.5 52.6 63.1 51.6 62.1C48.7 59 45.7 56 42.8 52.9C42.6 52.7 42.4 52.4 42.2 52.4C41.9 52.3 41.5 52.3 41.3 52.5C41.1 52.7 41 53.2 41.1 53.5C41.2 53.8 41.5 54 41.7 54.2C44.1 56.7 46.5 59.2 48.9 61.7C50.7 63.6 49.8 66.5 47.3 67.1C46.1 67.4 45.1 66.9 44.2 66.1C41.5 63.4 38.8 60.7 36.1 57.9C35.9 57.7 35.8 57.4 35.5 57.4C35.2 57.3 34.7 57.3 34.5 57.5C34.3 57.7 34.4 58.2 34.4 58.5C34.4 58.7 34.7 58.9 34.9 59.1C37.1 61.3 39.3 63.5 41.5 65.7C42.3 66.5 42.5 67.4 42.2 68.4C41.9 69.4 41.2 69.9 40.2 70.2C39.3 70.4 38.5 70 37.8 69.5C33.6 66.2 29.3 62.9 25.2 59.5C19.9 55.2 15 50.5 10.5 45.4C10.3 45.2 10.1 44.7 10.2 44.4C12.2 37.8 14.2 31.1 16.2 24.5C16.2 24.3 16.3 24.2 16.3 24Z" fill="#D1CCEA"></path>
  <path d="M25.8 35.1C26.2 33.9 26.4 32.7 27 31.6C29.4 27.4 32.6 23.9 37 21.5C39.8 20 42.6 19.7 45.7 21C50.8 23.1 55.9 25.1 61 27.1C61.5 27.3 61.8 27.6 62 28.2C64.4 34.9 66.9 41.6 69.4 48.4C69.6 48.9 69.5 49.3 69.2 49.7C68.3 50.9 67.2 51.9 65.7 52.4C65.2 52.6 64.9 52.5 64.5 52.1C57.5 45.6 50.4 39.2 43.3 32.7C42.7 32.1 42 32 41.2 32.1C38.2 32.7 35.8 34.4 33.7 36.4C32.4 37.6 30.8 38.2 29.1 38.2C27.1 38.2 25.9 37 25.9 35C26 35.1 25.9 35.1 25.8 35.1Z" fill="#EAECF0"></path>
  <path d="M80 20.4C80 31.3 80 42.2 80 53C78.1 53 76.2 53.1 74.3 53C73.1 52.9 72.6 52 72.2 50.9C70.1 45 67.9 39.2 65.7 33.3C64.9 31.1 64 28.8 63.2 26.6C62.5 24.7 63.1 23.5 64.9 22.8C69.5 21 74.4 20.2 79.3 20.4C79.6 20.4 79.8 20.4 80 20.4Z" fill="#98A2B3"></path>
  <path d="M0 49C0 38.1 0 27.3 0 16.3C1.5 16.4 2.9 16.4 4.3 16.5C7.4 16.8 10.4 17.6 13.3 18.8C15 19.6 15.5 20.6 15 22.5C12.5 30.6 10.1 38.7 7.6 46.8C7.1 48.5 6.4 49 4.6 49C3.2 49 1.8 49 0.4 49C0.3 49.1 0.2 49.1 0 49Z" fill="#6656B8"></path>
</svg>
