<?xml version="1.0" encoding="UTF-8"?>
<svg xmlns="http://www.w3.org/2000/svg" width="80" height="80" viewBox="0 0 80 80" fill="none">
  <g clip-path="url(#clip0_73_1704)">
    <path d="M80 54.1833C80.0061 58.0627 78.5254 61.797 75.8624 64.6181C73.1994 67.4392 69.5567 69.1326 65.6833 69.35H64.0167C61.0521 69.1936 58.1984 68.1715 55.8086 66.4102C53.4188 64.6489 51.5978 62.2256 50.5708 59.4402C49.5438 56.6548 49.3559 53.6294 50.0304 50.7383C50.7048 47.8472 52.212 45.2173 54.3655 43.1738C56.519 41.1303 59.2243 39.763 62.1468 39.241C65.0692 38.719 68.0806 39.0651 70.8084 40.2366C73.5362 41.4082 75.8607 43.3537 77.4943 45.8325C79.128 48.3113 79.9991 51.2146 80 54.1833Z" fill="#EAECF0"></path>
    <path d="M64.8167 58.0167C65.8432 58.02 66.8477 57.7183 67.7026 57.1501C68.5576 56.5818 69.2245 55.7724 69.6189 54.8246C70.0133 53.8768 70.1173 52.8332 69.9179 51.8262C69.7184 50.8192 69.2244 49.8941 68.4985 49.1682C67.7726 48.4423 66.8475 47.9483 65.8404 47.7488C64.8334 47.5493 63.7899 47.6534 62.842 48.0478C61.8942 48.4422 61.0849 49.1091 60.5166 49.964C59.9483 50.819 59.6467 51.8234 59.65 52.85C59.65 53.5285 59.7836 54.2004 60.0433 54.8272C60.3029 55.454 60.6835 56.0236 61.1633 56.5034C61.6431 56.9832 62.2126 57.3637 62.8395 57.6234C63.4663 57.883 64.1382 58.0167 64.8167 58.0167Z" fill="#98A2B3"></path>
    <path d="M75 65.4C72.4193 67.7561 69.1055 69.1511 65.6167 69.35H63.95C60.4654 69.1541 57.156 67.7584 54.5833 65.4C54.7089 63.823 55.4231 62.3509 56.5842 61.2764C57.7452 60.2018 59.268 59.6034 60.85 59.6H68.8C70.3693 59.6237 71.8736 60.2308 73.0197 61.303C74.1659 62.3752 74.8718 63.8357 75 65.4Z" fill="#98A2B3"></path>
    <path d="M55.1833 25.8167C55.1771 29.6908 53.6918 33.4164 51.0309 36.2323C48.37 39.0481 44.7343 40.7415 40.8667 40.9667H39.2C36.2384 40.7974 33.3913 39.7642 31.0103 37.9948C28.6293 36.2254 26.8188 33.7974 25.8024 31.0105C24.786 28.2236 24.6082 25.2001 25.291 22.3133C25.9738 19.4265 27.4873 16.803 29.6445 14.7668C31.8017 12.7305 34.5081 11.3708 37.4294 10.8556C40.3507 10.3403 43.359 10.6921 46.0827 11.8675C48.8063 13.0428 51.126 14.9903 52.7552 17.4693C54.3844 19.9483 55.2517 22.8502 55.25 25.8167H55.1833Z" fill="#F0EEF8"></path>
    <path d="M40 29.6334C41.0259 29.6334 42.0287 29.329 42.8814 28.7587C43.7342 28.1884 44.3985 27.3779 44.7903 26.4298C45.1822 25.4817 45.2838 24.4386 45.0825 23.4327C44.8811 22.4268 44.3858 21.5032 43.6592 20.779C42.9327 20.0548 42.0075 19.5624 41.001 19.3643C39.9944 19.1662 38.9517 19.2712 38.0048 19.6661C37.058 20.061 36.2496 20.7279 35.6821 21.5825C35.1146 22.4371 34.8134 23.4409 34.8167 24.4667C34.8211 25.8385 35.3691 27.1527 36.3407 28.1211C37.3123 29.0896 38.6282 29.6334 40 29.6334Z" fill="#6656B8"></path>
    <path d="M50.2333 37.0167C47.6607 39.3751 44.3513 40.7708 40.8667 40.9667H39.2C35.7154 40.7708 32.406 39.3751 29.8333 37.0167C29.9586 35.4425 30.6705 33.9728 31.828 32.8987C32.9855 31.8245 34.5042 31.2242 36.0833 31.2167H44.05C45.6175 31.2408 47.1198 31.8485 48.2632 32.921C49.4066 33.9935 50.1091 35.4539 50.2333 37.0167Z" fill="#6656B8"></path>
    <path d="M30.35 54.1833C30.3563 58.06 28.8779 61.7919 26.2184 64.6126C23.559 67.4332 19.9204 69.1284 16.05 69.3499H14.3833C11.4215 69.1839 8.57321 68.1538 6.19028 66.387C3.80735 64.6202 1.99417 62.1941 0.974726 59.4083C-0.0447213 56.6225 -0.225779 53.5991 0.453919 50.7115C1.13362 47.824 2.64429 45.1988 4.79934 43.1602C6.95439 41.1217 9.65939 39.759 12.5802 39.2407C15.5011 38.7223 18.5098 39.0709 21.2347 40.2435C23.9596 41.416 26.2813 43.3611 27.9131 45.8384C29.5449 48.3157 30.4153 51.2168 30.4167 54.1833H30.35Z" fill="#EAECF0"></path>
    <path d="M15.1833 58.0167C16.2092 58.0167 17.212 57.7123 18.0648 57.142C18.9175 56.5717 19.5819 55.7612 19.9737 54.8131C20.3655 53.865 20.4672 52.8219 20.2658 51.816C20.0645 50.8101 19.5691 49.8865 18.8426 49.1623C18.116 48.4381 17.1909 47.9457 16.1843 47.7476C15.1777 47.5495 14.135 47.6545 13.1882 48.0494C12.2413 48.4443 11.433 49.1112 10.8654 49.9658C10.2979 50.8204 9.9967 51.8242 10 52.85C9.99999 53.5299 10.1342 54.2031 10.3949 54.8311C10.6556 55.459 11.0376 56.0293 11.5192 56.5093C12.0007 56.9893 12.5722 57.3695 13.201 57.6282C13.8298 57.8869 14.5034 58.0189 15.1833 58.0167Z" fill="#98A2B3"></path>
    <path d="M25.4167 65.4C22.844 67.7584 19.5346 69.1541 16.05 69.35H14.3833C10.8929 69.1579 7.57698 67.762 5 65.4C5.12929 63.8244 5.84468 62.3546 7.0049 61.2808C8.16511 60.2069 9.6858 59.6072 11.2667 59.6H19.2167C20.7871 59.62 22.2934 60.2258 23.4404 61.2988C24.5873 62.3717 25.2921 63.8344 25.4167 65.4Z" fill="#98A2B3"></path>
  </g>
  <defs>
    <clipPath id="clip0_73_1704">
      <rect width="80" height="80" fill="white"></rect>
    </clipPath>
  </defs>
</svg>
