<?xml version="1.0" encoding="UTF-8"?>
<svg xmlns="http://www.w3.org/2000/svg" width="48" height="48" viewBox="0 0 48 48" fill="none">
  <path d="M29.592 37.932C29.742 38.67 29.856 39.348 30.024 40.02C30.024 40.122 30.264 40.242 30.402 40.248C31.284 40.248 32.172 40.248 33.06 40.248C33.792 40.248 34.062 40.512 34.062 41.232C34.062 41.952 34.062 42.522 34.062 43.164C34.062 43.806 33.786 44.118 33.132 44.118H14.844C14.7232 44.1377 14.5995 44.1289 14.4827 44.0923C14.3659 44.0557 14.2592 43.9924 14.1712 43.9073C14.0832 43.8222 14.0163 43.7178 13.9758 43.6023C13.9354 43.4868 13.9224 43.3634 13.938 43.242C13.938 42.528 13.938 41.82 13.938 41.112C13.9252 40.9946 13.9392 40.8759 13.979 40.7647C14.0188 40.6535 14.0833 40.5529 14.1676 40.4702C14.252 40.3876 14.354 40.3252 14.4659 40.2878C14.5779 40.2503 14.6969 40.2388 14.814 40.254C15.732 40.254 16.656 40.254 17.574 40.254C17.838 40.254 17.976 40.206 18.018 39.906C18.12 39.258 18.27 38.616 18.408 37.926H3C1.128 37.926 0 36.822 0 34.956V6.858C0 4.986 1.104 3.858 2.964 3.858H45C46.896 3.858 48 4.956 48 6.858V34.932C48 36.834 46.896 37.932 45 37.932H29.592ZM46.452 31.716V6.798C46.452 5.832 46.008 5.4 45 5.4H3C1.95 5.4 1.542 5.808 1.542 6.864V31.716H46.452ZM46.452 33.324H1.548V34.8C1.548 36 1.914 36.384 3.132 36.384H44.874C45.036 36.384 45.198 36.384 45.36 36.384C45.6447 36.3692 45.9135 36.2482 46.1135 36.045C46.3134 35.8417 46.4299 35.5709 46.44 35.286C46.47 34.638 46.446 33.996 46.446 33.324H46.452ZM19.536 40.2H28.464C28.326 39.498 28.206 38.85 28.056 38.214C28.0274 38.1437 27.9817 38.0816 27.923 38.0334C27.8643 37.9852 27.7946 37.9524 27.72 37.938C25.236 37.938 22.754 37.938 20.274 37.938C20.205 37.9475 20.1393 37.9738 20.0829 38.0146C20.0264 38.0554 19.9808 38.1095 19.95 38.172C19.8 38.85 19.674 39.528 19.536 40.2ZM15.504 42.54H32.496V41.832H15.504V42.54Z" fill="#6656B8"></path>
  <path d="M23.9641 35.61C23.7061 35.61 23.4481 35.61 23.1901 35.61C22.9864 35.61 22.7911 35.5291 22.6471 35.3851C22.503 35.241 22.4221 35.0457 22.4221 34.842C22.4221 34.6383 22.503 34.443 22.6471 34.2989C22.7911 34.1549 22.9864 34.074 23.1901 34.074C23.7181 34.074 24.2521 34.074 24.7801 34.074C24.977 34.0707 25.1673 34.1451 25.3098 34.2809C25.4524 34.4167 25.5358 34.6032 25.5421 34.8C25.5445 34.9011 25.5268 35.0016 25.4899 35.0957C25.4531 35.1899 25.3979 35.2758 25.3275 35.3484C25.2571 35.4209 25.173 35.4788 25.0801 35.5186C24.9871 35.5584 24.8872 35.5792 24.7861 35.58C24.5161 35.622 24.2401 35.61 23.9641 35.61Z" fill="#6656B8"></path>
</svg>
