<?xml version="1.0" encoding="UTF-8"?>
<svg xmlns="http://www.w3.org/2000/svg" width="64" height="64" viewBox="0 0 64 64" fill="none">
  <g clip-path="url(#clip0_139_5707)">
    <path d="M41.6801 52.136L40.7281 54.232H43.8241L44.8001 52.136H41.6801ZM33.1601 52.136H30.2961L30.6721 54.232H33.5361L33.1601 52.136ZM13.4081 6.71198V8.79997H47.5281V6.71198H13.4081ZM52.1361 13.416V30.4L54.2321 31.536V13.416H52.1361ZM26.0321 52.136H13.4081V54.232H26.4001L26.0321 52.136ZM6.7041 47.528H8.8001V13.416H6.7041V47.528ZM52.1361 47.136V49.832C52.1401 49.8826 52.1401 49.9334 52.1361 49.984L54.2401 49.712V46.872L52.1361 47.136ZM52.1361 35.136V38.336L54.2321 39.464V36.264L52.1361 35.136Z" fill="#B3ABDC"></path>
    <path d="M61.52 40.2L54.232 36.272L52.136 35.136L33.2 24.928C32.421 24.5056 31.5386 24.3118 30.6543 24.369C29.77 24.4261 28.9199 24.7319 28.2017 25.251C27.4836 25.7702 26.9267 26.4816 26.5952 27.3034C26.2637 28.1252 26.1711 29.0239 26.328 29.896L30.328 52.136L30.704 54.232L31.752 60.12C31.9111 61.1157 32.3897 62.0327 33.1155 62.7325C33.8414 63.4324 34.7752 63.8773 35.776 64C35.9811 64.012 36.1868 64.012 36.392 64C37.2941 64.0041 38.1776 63.7442 38.9338 63.2524C39.6901 62.7605 40.2859 62.0583 40.648 61.232L43.848 54.232L44.8 52.136L44.968 51.776C45.0974 51.4899 45.2961 51.2405 45.5461 51.0506C45.7962 50.8606 46.0896 50.736 46.4 50.688L52.096 49.984L54.2 49.712L59.8 49.024C60.7843 48.8943 61.7024 48.4571 62.4235 47.7747C63.1446 47.0922 63.6316 46.1995 63.8152 45.2238C63.9988 44.2481 63.8696 43.2394 63.4459 42.3416C63.0222 41.4437 62.3258 40.7026 61.456 40.224L61.52 40.2ZM61.144 44.696C61.0766 45.0887 60.8847 45.4493 60.5965 45.7245C60.3084 45.9997 59.9394 46.1748 59.544 46.224L54.264 46.872L52.168 47.136L46.112 47.888C45.3117 47.9878 44.5504 48.2909 43.9006 48.7684C43.2507 49.246 42.7341 49.8821 42.4 50.616L41.704 52.136L40.752 54.232L38.104 60.072C37.9371 60.4381 37.6577 60.7413 37.3065 60.9374C36.9552 61.1336 36.5505 61.2124 36.1513 61.1623C35.7521 61.1123 35.3794 60.9361 35.0874 60.6594C34.7954 60.3827 34.5994 60.0199 34.528 59.624L33.56 54.232L33.184 52.136L29.104 29.408C29.0427 29.058 29.0809 28.6978 29.2144 28.3685C29.3479 28.0392 29.5713 27.7541 29.859 27.5456C30.1467 27.3371 30.4873 27.2136 30.8418 27.1893C31.1963 27.165 31.5505 27.2408 31.864 27.408L52.136 38.352L54.232 39.48L60.176 42.68C60.5346 42.8651 60.823 43.1621 60.9977 43.5259C61.1724 43.8896 61.2237 44.3004 61.144 44.696Z" fill="black"></path>
    <path d="M61.52 40.2L54.232 36.272L52.136 35.136L33.2 24.928C32.421 24.5056 31.5386 24.3118 30.6543 24.369C29.77 24.4261 28.9199 24.7319 28.2017 25.251C27.4836 25.7702 26.9267 26.4816 26.5952 27.3034C26.2637 28.1252 26.1711 29.0239 26.328 29.896L30.328 52.136L30.704 54.232L31.752 60.12C31.9111 61.1157 32.3897 62.0327 33.1155 62.7325C33.8414 63.4324 34.7752 63.8773 35.776 64C35.9811 64.012 36.1868 64.012 36.392 64C37.2941 64.0041 38.1776 63.7442 38.9338 63.2524C39.6901 62.7605 40.2859 62.0583 40.648 61.232L43.848 54.232L44.8 52.136L44.968 51.776C45.0974 51.4899 45.2961 51.2405 45.5461 51.0506C45.7962 50.8606 46.0896 50.736 46.4 50.688L52.096 49.984L54.2 49.712L59.8 49.024C60.7843 48.8943 61.7024 48.4571 62.4235 47.7747C63.1446 47.0922 63.6316 46.1995 63.8152 45.2238C63.9988 44.2481 63.8696 43.2394 63.4459 42.3416C63.0222 41.4437 62.3258 40.7026 61.456 40.224L61.52 40.2ZM61.144 44.696C61.0766 45.0887 60.8847 45.4493 60.5965 45.7245C60.3084 45.9997 59.9394 46.1748 59.544 46.224L54.264 46.872L52.168 47.136L46.112 47.888C45.3117 47.9878 44.5504 48.2909 43.9006 48.7684C43.2507 49.246 42.7341 49.8821 42.4 50.616L41.704 52.136L40.752 54.232L38.104 60.072C37.9371 60.4381 37.6577 60.7413 37.3065 60.9374C36.9552 61.1336 36.5505 61.2124 36.1513 61.1623C35.7521 61.1123 35.3794 60.9361 35.0874 60.6594C34.7954 60.3827 34.5994 60.0199 34.528 59.624L33.56 54.232L33.184 52.136L29.104 29.408C29.0427 29.058 29.0809 28.6978 29.2144 28.3685C29.3479 28.0392 29.5713 27.7541 29.859 27.5456C30.1467 27.3371 30.4873 27.2136 30.8418 27.1893C31.1963 27.165 31.5505 27.2408 31.864 27.408L52.136 38.352L54.232 39.48L60.176 42.68C60.5346 42.8651 60.823 43.1621 60.9977 43.5259C61.1724 43.8896 61.2237 44.3004 61.144 44.696Z" fill="#6656B8"></path>
    <path d="M11.104 0H4.40001C3.82152 -9.56177e-07 3.2487 0.114073 2.71435 0.335694C2.18 0.557315 1.69459 0.882132 1.28591 1.29156C0.877223 1.70098 0.553288 2.18698 0.332638 2.72174C0.111989 3.25649 -0.00104453 3.82951 7.27339e-06 4.408V11.112C0.00212206 12.2783 0.466371 13.3962 1.29107 14.2209C2.11578 15.0456 3.2337 15.5099 4.40001 15.512H11.104C11.6818 15.512 12.254 15.3982 12.7878 15.1771C13.3216 14.9559 13.8067 14.6318 14.2153 14.2233C14.6239 13.8147 14.948 13.3296 15.1691 12.7958C15.3902 12.262 15.504 11.6898 15.504 11.112V4.408C15.5051 3.82951 15.392 3.25649 15.1714 2.72174C14.9507 2.18698 14.6268 1.70098 14.2181 1.29156C13.8094 0.882132 13.324 0.557315 12.7897 0.335694C12.2553 0.114073 11.6825 -9.56177e-07 11.104 0ZM13.408 11.104C13.408 11.7151 13.1653 12.3011 12.7332 12.7332C12.3011 13.1653 11.7151 13.408 11.104 13.408H4.40001C3.78895 13.408 3.20292 13.1653 2.77083 12.7332C2.33875 12.3011 2.09601 11.7151 2.09601 11.104V4.408C2.096 3.7962 2.33849 3.20935 2.77035 2.77599C3.2022 2.34264 3.78821 2.09812 4.40001 2.096H11.104C11.7158 2.09812 12.3018 2.34264 12.7337 2.77599C13.1655 3.20935 13.408 3.7962 13.408 4.408V11.104Z" fill="#6656B8"></path>
    <path d="M56.5359 0H49.8319C48.6649 0 47.5458 0.46357 46.7206 1.28873C45.8955 2.11389 45.4319 3.23305 45.4319 4.4V11.104C45.4319 11.6818 45.5457 12.254 45.7668 12.7878C45.9879 13.3216 46.312 13.8067 46.7206 14.2153C47.5458 15.0404 48.6649 15.504 49.8319 15.504H56.5359C57.7022 15.5019 58.8201 15.0376 59.6448 14.2129C60.4695 13.3882 60.9338 12.2703 60.9359 11.104V4.408C60.9369 3.82951 60.8239 3.25649 60.6033 2.72174C60.3826 2.18698 60.0587 1.70098 59.65 1.29156C59.2413 0.882132 58.7559 0.557315 58.2215 0.335694C57.6872 0.114073 57.1144 -9.56177e-07 56.5359 0ZM58.8399 11.104C58.8399 11.7151 58.5971 12.3011 58.1651 12.7332C57.733 13.1653 57.1469 13.408 56.5359 13.408H49.8319C49.2208 13.408 48.6348 13.1653 48.2027 12.7332C47.7706 12.3011 47.5279 11.7151 47.5279 11.104V4.408C47.5279 3.7962 47.7704 3.20935 48.2022 2.77599C48.6341 2.34264 49.2201 2.09812 49.8319 2.096H56.5359C57.1477 2.09812 57.7337 2.34264 58.1655 2.77599C58.5974 3.20935 58.8399 3.7962 58.8399 4.408V11.104Z" fill="#6656B8"></path>
    <path d="M11.104 45.432H4.4C3.2337 45.4341 2.11577 45.8984 1.29107 46.7231C0.466364 47.5478 0.00211479 48.6657 0 49.832L0 56.544C0.00211479 57.7103 0.466364 58.8282 1.29107 59.6529C2.11577 60.4776 3.2337 60.9419 4.4 60.944H11.104C11.6818 60.944 12.254 60.8302 12.7878 60.6091C13.3216 60.388 13.8067 60.0639 14.2153 59.6553C14.6238 59.2467 14.948 58.7616 15.1691 58.2278C15.3902 57.694 15.504 57.1218 15.504 56.544V49.832C15.504 49.2542 15.3902 48.682 15.1691 48.1482C14.948 47.6144 14.6238 47.1293 14.2153 46.7207C13.8067 46.3122 13.3216 45.9881 12.7878 45.7669C12.254 45.5458 11.6818 45.432 11.104 45.432ZM13.408 56.544C13.4059 57.1544 13.1625 57.7392 12.7308 58.1708C12.2992 58.6025 11.7144 58.8459 11.104 58.848H4.4C3.78959 58.8459 3.20478 58.6025 2.77316 58.1708C2.34153 57.7392 2.09811 57.1544 2.096 56.544V49.832C2.096 49.2209 2.33874 48.6349 2.77083 48.2028C3.20291 47.7707 3.78894 47.528 4.4 47.528H11.104C11.7151 47.528 12.3011 47.7707 12.7332 48.2028C13.1653 48.6349 13.408 49.2209 13.408 49.832V56.544Z" fill="#6656B8"></path>
  </g>
  <defs>
    <clipPath id="clip0_139_5707">
      <rect width="64" height="64" fill="white"></rect>
    </clipPath>
  </defs>
</svg>
