<?xml version="1.0" encoding="UTF-8"?>
<svg xmlns="http://www.w3.org/2000/svg" width="80" height="80" viewBox="0 0 80 80" fill="none">
  <path d="M40 70.26C56.7121 70.26 70.26 56.7121 70.26 40C70.26 23.2879 56.7121 9.73999 40 9.73999C23.2879 9.73999 9.74 23.2879 9.74 40C9.74 56.7121 23.2879 70.26 40 70.26Z" fill="#F0EEF8"></path>
  <path d="M8.16 24.8V6.92004H20.4V10.16H11.88V14.7H19.2V17.94H11.88V24.8H8.16Z" fill="#6656B8"></path>
  <path d="M22.25 24.8V6.92005H29.09C30.2172 6.9002 31.3356 7.12183 32.37 7.57005C33.2908 7.97333 34.0706 8.64175 34.61 9.49005C35.1834 10.4345 35.4684 11.5258 35.43 12.63C35.4642 13.727 35.1719 14.8095 34.59 15.74C34.0414 16.5903 33.2557 17.2613 32.33 17.67L36.41 24.8H32.24L27.82 16.91L30.22 18.32H26V24.8H22.25ZM26 15.08H29.15C29.6223 15.0935 30.0902 14.9869 30.51 14.77C30.8846 14.5733 31.1964 14.2753 31.41 13.91C31.6262 13.5163 31.7396 13.0743 31.7396 12.625C31.7396 12.1758 31.6262 11.7338 31.41 11.34C31.1997 10.9697 30.8872 10.6677 30.51 10.47C30.0886 10.2576 29.6218 10.1512 29.15 10.16H26V15.08Z" fill="#6656B8"></path>
  <path d="M38.26 24.8V6.92004H50.26V10.16H42V14.22H49.8V17.46H42V21.56H50.3V24.8H38.26Z" fill="#6656B8"></path>
  <path d="M52.4 24.8V6.92004H64.4V10.16H56.1V14.22H63.92V17.46H56.12V21.56H64.42V24.8H52.4Z" fill="#6656B8"></path>
  <path d="M11.38 48.8V34.16H6.84V30.92H19.57V34.16H15.1V48.8H11.38Z" fill="#6656B8"></path>
  <path d="M21.41 48.8V30.92H28.25C29.3772 30.9002 30.4956 31.1218 31.53 31.57C32.4508 31.9733 33.2306 32.6418 33.77 33.49C34.3434 34.4345 34.6284 35.5258 34.59 36.63C34.6242 37.727 34.3319 38.8095 33.75 39.74C33.2014 40.5903 32.4157 41.2613 31.49 41.67L35.57 48.8H31.4L27 40.91L29.4 42.32H25.13V48.8H21.41ZM25.13 39.08H28.28C28.7553 39.0922 29.2262 38.9857 29.65 38.77C30.0197 38.5701 30.3275 38.2726 30.54 37.91C30.7562 37.5163 30.8696 37.0743 30.8696 36.625C30.8696 36.1758 30.7562 35.7338 30.54 35.34C30.3306 34.9725 30.0222 34.671 29.65 34.47C29.2243 34.2598 28.7548 34.1535 28.28 34.16H25.13V39.08Z" fill="#6656B8"></path>
  <path d="M37.42 48.8V30.92H41.14V48.8H37.42Z" fill="#6656B8"></path>
  <path d="M43 48.8L49 30.92H54L60 48.8H56L54.8 45.15H48.22L47 48.8H43ZM49.26 41.91H53.75L51 33.47H52L49.26 41.91Z" fill="#6656B8"></path>
  <path d="M61.88 48.8V30.92H65.6V45.56H73.16V48.8H61.88Z" fill="#6656B8"></path>
  <path d="M60.92 54.05L48.7 66.28C48.4929 66.4846 48.3284 66.7283 48.2162 66.9969C48.104 67.2656 48.0462 67.5538 48.0462 67.845C48.0462 68.1361 48.104 68.4244 48.2162 68.693C48.3284 68.9617 48.4929 69.2054 48.7 69.41L56.58 77.29C56.7861 77.4962 57.0309 77.6598 57.3003 77.7714C57.5697 77.883 57.8584 77.9404 58.15 77.9404C58.4416 77.9404 58.7303 77.883 58.9997 77.7714C59.2691 77.6598 59.5138 77.4962 59.72 77.29L71.94 65.07C72.1658 64.8432 72.3399 64.5703 72.4503 64.27C72.5608 63.9696 72.605 63.649 72.58 63.33L72 56C71.9493 55.4868 71.7223 55.007 71.3576 54.6423C70.993 54.2777 70.5132 54.0507 70 54L62.69 53.43C62.3676 53.3979 62.0421 53.4368 61.7363 53.5439C61.4305 53.651 61.1519 53.8237 60.92 54.05Z" fill="#6656B8"></path>
  <path d="M69.1 58.54C70.0113 58.54 70.75 57.8013 70.75 56.89C70.75 55.9787 70.0113 55.24 69.1 55.24C68.1887 55.24 67.45 55.9787 67.45 56.89C67.45 57.8013 68.1887 58.54 69.1 58.54Z" fill="white"></path>
  <path d="M56 72.22L51.78 68L50.78 69L49.88 68.1L51.94 66.1L57.04 71.2L56 72.22Z" fill="white"></path>
  <path d="M60.12 68.08L59 67L56.74 69.26L55.85 68.37L55 63L56.13 61.87L59.2 65L59.99 64.21L60.88 65.1L60.09 65.89L61.18 67L60.12 68.08ZM57 68L56.42 67.82L58.11 66.13L55.81 63.84L56.16 63.65L57 68Z" fill="white"></path>
  <path d="M57.85 76.07L55.85 74.07L56.51 73.41C56.7074 73.2054 56.9508 73.0511 57.22 72.96C57.4617 72.89 57.7183 72.89 57.96 72.96C58.1945 73.0346 58.4076 73.1644 58.5816 73.3384C58.7556 73.5124 58.8853 73.7255 58.96 73.96C59.03 74.2017 59.03 74.4583 58.96 74.7C58.8688 74.9692 58.7145 75.2126 58.51 75.41L57.85 76.07ZM57.85 75.28L58.1 75.03C58.2232 74.9104 58.3158 74.7629 58.37 74.6C58.4099 74.4526 58.4099 74.2973 58.37 74.15C58.3144 73.9877 58.222 73.8405 58.1 73.72C57.984 73.5996 57.8395 73.5102 57.68 73.46C57.5327 73.42 57.3773 73.42 57.23 73.46C57.0658 73.5115 56.9177 73.6045 56.8 73.73L56.6 74L57.85 75.28Z" fill="white"></path>
  <path d="M59.64 74.28L58.29 71.55L58.85 70.99L61.58 72.34L61.12 72.8L60.57 72.52L59.82 73.27L60.1 73.82L59.64 74.28ZM59.57 72.78L60.08 72.27L58.8 71.62L58.92 71.5L59.57 72.78Z" fill="white"></path>
  <path d="M62.13 71.79L61.24 70.9L59.41 70.43L59.9 69.94L61.25 70.31L61.08 70.49L60.71 69.13L61.19 68.65L61.66 70.47L62.56 71.36L62.13 71.79Z" fill="white"></path>
  <path d="M64.14 69.85C64.0166 69.9734 63.8706 70.0718 63.71 70.14C63.5531 70.2119 63.3826 70.2492 63.21 70.2492C63.0374 70.2492 62.8669 70.2119 62.71 70.14L62.9 69.64C63.0576 69.679 63.2224 69.679 63.38 69.64C63.5282 69.6109 63.6641 69.5377 63.77 69.43C63.8229 69.3776 63.8668 69.3167 63.9 69.25C63.9148 69.1943 63.9148 69.1357 63.9 69.08C63.8973 69.051 63.8888 69.0227 63.8751 68.997C63.8613 68.9712 63.8426 68.9485 63.82 68.93C63.7773 68.886 63.7209 68.8577 63.66 68.85C63.583 68.8524 63.5076 68.873 63.44 68.91L63 69.2C62.8158 69.2986 62.6088 69.3468 62.4 69.34C62.2208 69.3223 62.054 69.2406 61.93 69.11C61.8145 68.9991 61.7345 68.8564 61.7 68.7C61.6561 68.5498 61.6561 68.3902 61.7 68.24C61.7589 68.0688 61.8584 67.9144 61.99 67.79C62.1033 67.6734 62.2395 67.5815 62.39 67.52C62.531 67.4555 62.6851 67.4247 62.84 67.43C62.9957 67.4279 63.1498 67.4621 63.29 67.53L63.1 68.03C62.9688 67.9966 62.8312 67.9966 62.7 68.03C62.5713 68.0549 62.4529 68.1176 62.36 68.21C62.3071 68.2625 62.2632 68.3233 62.23 68.39C62.2152 68.4491 62.2152 68.5109 62.23 68.57C62.2405 68.6271 62.2684 68.6795 62.31 68.72C62.3541 68.7678 62.4151 68.7965 62.48 68.8C62.5552 68.8214 62.6348 68.8214 62.71 68.8L63.22 68.53C63.4005 68.4301 63.6037 68.3785 63.81 68.38C63.9897 68.396 64.1571 68.4779 64.28 68.61C64.3975 68.7194 64.4779 68.8627 64.51 69.02C64.5473 69.1745 64.5473 69.3356 64.51 69.49C64.4101 69.6319 64.2846 69.754 64.14 69.85Z" fill="white"></path>
</svg>
