<?xml version="1.0" encoding="UTF-8"?>
<svg xmlns="http://www.w3.org/2000/svg" width="48" height="48" viewBox="0 0 48 48" fill="none">
  <path d="M27.93 0.0360107C28.464 0.150011 28.998 0.246011 29.52 0.378011C31.3284 0.859317 32.9602 1.85056 34.2208 3.23355C35.4815 4.61654 36.3178 6.33291 36.63 8.17801C36.717 8.77416 36.7632 9.37556 36.768 9.97801C36.768 11.832 36.768 13.692 36.768 15.546V15.978C38.124 15.978 39.432 15.978 40.74 15.978C41.3765 15.978 41.987 16.2309 42.4371 16.681C42.8872 17.131 43.14 17.7415 43.14 18.378C43.14 19.0145 42.8872 19.625 42.4371 20.0751C41.987 20.5252 41.3765 20.778 40.74 20.778C40.494 20.778 40.248 20.778 39.942 20.778V21.84C39.942 23.04 39.942 24.276 39.942 25.494C39.9702 25.8237 39.9261 26.1555 39.8129 26.4663C39.6996 26.7772 39.5199 27.0596 39.2862 27.2938C39.0526 27.528 38.7706 27.7085 38.46 27.8225C38.1495 27.9365 37.8177 27.9814 37.488 27.954C37.2467 27.9107 36.9978 27.9553 36.7865 28.0797C36.5751 28.204 36.4153 28.4 36.336 28.632C36.0923 29.1704 35.6914 29.6225 35.1859 29.9288C34.6804 30.2351 34.0941 30.3812 33.504 30.348C31.848 30.348 30.192 30.348 28.536 30.348H27.972V32.244C27.972 33.336 27.798 33.51 26.7 33.54C26.61 33.54 26.52 33.54 26.376 33.54C26.376 34.32 26.376 35.082 26.376 35.838C26.376 35.94 26.634 36.084 26.784 36.108C28.824 36.462 30.87 36.798 32.916 37.14C33.7837 37.2486 34.5923 37.6372 35.2192 38.2468C35.8461 38.8564 36.2572 39.6537 36.39 40.518C36.4266 40.6521 36.4547 40.7884 36.474 40.926C36.4931 41.2163 36.5755 41.4988 36.7154 41.7538C36.8554 42.0088 37.0494 42.23 37.284 42.402C37.7937 42.8478 38.1417 43.4496 38.2741 44.1136C38.4065 44.7777 38.3158 45.4668 38.016 46.074C37.7199 46.7207 37.2156 47.2494 36.5837 47.5757C35.9518 47.902 35.2287 48.007 34.53 47.874C33.8699 47.7412 33.2682 47.4045 32.8096 46.9115C32.351 46.4185 32.0588 45.794 31.974 45.126C31.812 44.016 31.572 42.924 31.338 41.832C31.3126 41.7444 31.2675 41.6637 31.2061 41.5961C31.1448 41.5285 31.0688 41.4758 30.984 41.442C29.442 41.226 27.9 41.046 26.304 40.842C26.304 41.442 26.304 41.964 26.304 42.504C26.3316 42.6395 26.3936 42.7655 26.484 42.87C26.735 43.2211 26.9118 43.6195 27.0039 44.0411C27.0959 44.4627 27.1012 44.8986 27.0193 45.3223C26.9375 45.746 26.7703 46.1486 26.5279 46.5056C26.2855 46.8626 25.973 47.1666 25.6093 47.3989C25.2457 47.6313 24.8386 47.7872 24.4128 47.8572C23.987 47.9272 23.5514 47.9098 23.1325 47.806C22.7137 47.7023 22.3203 47.5144 21.9764 47.2538C21.6324 46.9931 21.3452 46.6652 21.132 46.29C20.8411 45.8228 20.687 45.2834 20.687 44.733C20.687 44.1826 20.8411 43.6432 21.132 43.176C21.3931 42.7584 21.5169 42.2695 21.486 41.778C21.486 41.478 21.486 41.178 21.486 40.836L19.086 41.13C18.36 41.214 17.634 41.322 16.902 41.394C16.7946 41.3932 16.6907 41.4319 16.6099 41.5027C16.5292 41.5734 16.4773 41.6714 16.464 41.778C16.302 42.492 16.116 43.2 15.948 43.914C15.9211 44.0809 15.9211 44.2511 15.948 44.418C16.0297 45.1612 15.8464 45.9094 15.4304 46.5307C15.0143 47.152 14.3923 47.6065 13.674 47.814C12.9535 48.0237 12.182 47.9728 11.4953 47.6702C10.8085 47.3676 10.2503 46.8328 9.9187 46.1596C9.5871 45.4863 9.50331 44.7178 9.68204 43.9889C9.86077 43.2601 10.2906 42.6175 10.896 42.174C11.0991 41.9989 11.2489 41.7702 11.328 41.514C11.5302 40.6971 11.7888 39.8952 12.102 39.114C12.774 37.818 14.016 37.314 15.408 37.116C17.334 36.828 19.254 36.516 21.174 36.162C21.318 36.162 21.54 35.97 21.546 35.862C21.546 35.118 21.546 34.374 21.546 33.57H21C20.292 33.57 20.01 33.282 19.998 32.574C19.986 31.866 19.998 31.326 19.998 30.696C20.0048 30.5901 20.0048 30.4839 19.998 30.378H19.482C17.892 30.378 16.296 30.378 14.682 30.378C13.9777 30.4382 13.2732 30.263 12.6792 29.8796C12.0852 29.4963 11.6353 28.9266 11.4 28.26C11.3529 28.1904 11.2917 28.1315 11.2204 28.087C11.1491 28.0426 11.0693 28.0136 10.986 28.002C10.5209 27.9753 10.058 27.9191 9.60003 27.834C9.1849 27.7317 8.8142 27.4974 8.5437 27.1663C8.27319 26.8352 8.1175 26.4252 8.10003 25.998C8.02803 24.486 8.05803 22.998 8.04603 21.462V20.862C7.63203 20.832 7.26003 20.826 6.89403 20.772C6.32284 20.6839 5.80262 20.3927 5.42895 19.9518C5.05529 19.5109 4.85327 18.9499 4.86003 18.372C4.86712 17.7787 5.10112 17.2105 5.51397 16.7843C5.92682 16.358 6.4872 16.106 7.08003 16.08C8.44803 16.032 9.81603 16.08 11.244 16.08V15.6C11.244 13.386 11.214 11.166 11.292 8.95201C11.3941 6.98614 12.1119 5.10216 13.3437 3.56668C14.5756 2.0312 16.2591 0.921992 18.156 0.396011C18.69 0.258011 19.242 0.156011 19.782 0.0360107H27.93ZM35.13 24.438C35.13 24.204 35.13 24.078 35.13 23.952C35.13 19.24 35.13 14.53 35.13 9.82201C35.1361 9.47917 35.1181 9.13632 35.076 8.79601C34.8305 6.84099 33.8874 5.04034 32.4202 3.72521C30.9529 2.41008 29.0602 1.66892 27.09 1.63801C24.936 1.63801 22.782 1.60201 20.634 1.63801C18.5931 1.63757 16.6333 2.43708 15.1751 3.86501C13.7169 5.29294 12.8764 7.23553 12.834 9.27601C12.75 14.22 12.804 19.164 12.804 24.108C12.804 24.192 12.804 24.276 12.804 24.234C13.566 24.156 14.286 24.012 15 24.006C20.886 24.006 26.766 24.006 32.646 24.006C33.5063 23.899 34.3791 24.0493 35.154 24.438H35.13ZM24.048 25.596H14.778C14.6061 25.587 14.4339 25.587 14.262 25.596C14.0041 25.5995 13.7524 25.6752 13.5353 25.8146C13.3183 25.9539 13.1446 26.1512 13.034 26.3843C12.9235 26.6173 12.8804 26.8766 12.9097 27.1329C12.9391 27.3891 13.0396 27.632 13.2 27.834C13.4148 28.1489 13.707 28.4031 14.0485 28.5723C14.3901 28.7415 14.7694 28.8199 15.15 28.8H33C33.3572 28.8038 33.7095 28.7173 34.0242 28.5484C34.3389 28.3795 34.6058 28.1337 34.8 27.834C34.962 27.6314 35.0633 27.3872 35.0923 27.1294C35.1212 26.8717 35.0766 26.611 34.9637 26.3775C34.8507 26.1441 34.674 25.9473 34.4539 25.8101C34.2338 25.6729 33.9794 25.6007 33.72 25.602C33.5481 25.593 33.3759 25.593 33.204 25.602L24.048 25.596ZM14.814 42.174C14.8307 42.144 14.8428 42.1116 14.85 42.078C14.958 41.676 15.066 41.268 15.168 40.878C15.354 40.17 15.528 40.032 16.254 39.942C18.174 39.71 20.092 39.47 22.008 39.222C22.83 39.114 23.208 39.402 23.208 40.23C23.208 40.692 23.208 41.154 23.208 41.616H24.816C24.816 41.118 24.816 40.62 24.816 40.122C24.8034 39.9848 24.8237 39.8465 24.8754 39.7187C24.9271 39.5909 25.0086 39.4773 25.1132 39.3875C25.2177 39.2976 25.3422 39.2341 25.4763 39.2022C25.6104 39.1702 25.7502 39.1709 25.884 39.204C26.334 39.252 26.784 39.324 27.234 39.378L31.968 39.978C32.1798 39.9856 32.3823 40.0672 32.5401 40.2086C32.698 40.35 32.8013 40.5423 32.832 40.752C32.934 41.25 33.078 41.748 33.186 42.198L34.95 41.508C34.9999 40.8622 34.7999 40.222 34.3912 39.7195C33.9825 39.217 33.3964 38.8907 32.754 38.808C30.6 38.4 28.47 38.064 26.34 37.692C25.9007 37.6493 25.4951 37.4378 25.2086 37.1021C24.9221 36.7664 24.7771 36.3326 24.804 35.892C24.804 35.58 24.804 35.292 24.804 34.956V33.6H23.196V34.134C23.196 34.776 23.196 35.418 23.196 36.054C23.184 36.4481 23.0348 36.8257 22.7741 37.1215C22.5134 37.4172 22.1575 37.6127 21.768 37.674C21.57 37.716 21.372 37.74 21.168 37.776C19.14 38.118 17.112 38.436 15.084 38.808C14.4778 38.9261 13.9377 39.2669 13.5701 39.7633C13.2026 40.2597 13.0342 40.8757 13.098 41.49L14.814 42.174ZM11.214 20.73L9.66003 20.844C9.66003 22.5 9.66003 24.144 9.66003 25.794C9.69171 25.9139 9.75111 26.0247 9.83344 26.1175C9.91576 26.2102 10.0187 26.2823 10.134 26.328C10.4866 26.3735 10.8435 26.3735 11.196 26.328L11.214 20.73ZM36.822 26.358C36.96 26.358 37.05 26.358 37.14 26.358C38.238 26.4 38.4 26.274 38.4 25.2V20.844L36.828 20.73L36.822 26.358ZM22.422 44.748C22.4087 44.9654 22.44 45.1833 22.514 45.3881C22.588 45.593 22.7032 45.7806 22.8524 45.9392C23.0016 46.0979 23.1818 46.2244 23.3817 46.3108C23.5817 46.3972 23.7972 46.4418 24.015 46.4418C24.2329 46.4418 24.4484 46.3972 24.6483 46.3108C24.8483 46.2244 25.0284 46.0979 25.1776 45.9392C25.3269 45.7806 25.442 45.593 25.5161 45.3881C25.5901 45.1833 25.6214 44.9654 25.608 44.748C25.5831 44.3424 25.4044 43.9616 25.1084 43.6832C24.8124 43.4048 24.4214 43.2498 24.015 43.2498C23.6087 43.2498 23.2176 43.4048 22.9216 43.6832C22.6256 43.9616 22.4469 44.3424 22.422 44.748ZM11.25 44.748C11.2417 45.0654 11.3286 45.378 11.4995 45.6456C11.6704 45.9132 11.9175 46.1235 12.209 46.2494C12.5004 46.3753 12.8229 46.411 13.1349 46.3521C13.4469 46.2931 13.7341 46.142 13.9594 45.9184C14.1848 45.6947 14.3381 45.4087 14.3995 45.0972C14.4609 44.7857 14.4276 44.463 14.3039 44.1705C14.1803 43.8781 13.9719 43.6294 13.7057 43.4564C13.4394 43.2834 13.1275 43.1941 12.81 43.2C12.3982 43.1983 12.0022 43.3583 11.7071 43.6455C11.412 43.9328 11.2415 44.3243 11.232 44.736L11.25 44.748ZM36.786 44.748C36.7797 44.3332 36.6096 43.9377 36.3129 43.6477C36.0162 43.3577 35.6169 43.1968 35.202 43.2C34.7843 43.1999 34.3831 43.3629 34.0838 43.6543C33.7846 43.9457 33.611 44.3425 33.6 44.76C33.6076 45.1779 33.7757 45.5768 34.0695 45.8739C34.3633 46.1711 34.7603 46.3437 35.178 46.356C35.6008 46.3528 36.0052 46.1827 36.3031 45.8826C36.6009 45.5825 36.768 45.1768 36.768 44.754L36.786 44.748ZM26.4 31.956V30.408H21.636V31.956H26.4ZM8.82603 17.616C8.31003 17.616 7.79403 17.616 7.27803 17.616C7.17246 17.6078 7.06632 17.6213 6.96619 17.6558C6.86606 17.6902 6.77406 17.7448 6.69589 17.8163C6.61771 17.8877 6.55503 17.9744 6.5117 18.071C6.46838 18.1676 6.44535 18.2721 6.44403 18.378C6.43551 18.4851 6.44971 18.5927 6.4857 18.6939C6.5217 18.795 6.57867 18.8875 6.65288 18.9651C6.7271 19.0427 6.81688 19.1038 6.91635 19.1442C7.01581 19.1847 7.1227 19.2037 7.23003 19.2C8.29003 19.228 9.35203 19.228 10.416 19.2C10.5223 19.2036 10.6281 19.1849 10.7267 19.1451C10.8252 19.1053 10.9144 19.0454 10.9884 18.9691C11.0624 18.8928 11.1197 18.8019 11.1565 18.7021C11.1933 18.6024 11.2088 18.4961 11.202 18.39C11.2007 18.2841 11.1777 18.1796 11.1343 18.083C11.091 17.9864 11.0283 17.8997 10.9502 17.8283C10.872 17.7568 10.78 17.7022 10.6799 17.6678C10.5797 17.6333 10.4736 17.6198 10.368 17.628C9.85203 17.604 9.33603 17.616 8.82603 17.616ZM39.174 17.616C38.664 17.616 38.148 17.616 37.632 17.616C37.528 17.6129 37.4244 17.6302 37.3271 17.6671C37.2298 17.704 37.1407 17.7597 37.065 17.831C36.9119 17.975 36.8224 18.174 36.816 18.384C36.8097 18.5941 36.887 18.798 37.031 18.9511C37.1751 19.1041 37.374 19.1936 37.584 19.2C38.64 19.23 39.702 19.23 40.764 19.2C40.9725 19.1944 41.1702 19.1063 41.3137 18.9549C41.4571 18.8036 41.5346 18.6015 41.529 18.393C41.5235 18.1846 41.4353 17.9868 41.284 17.8434C41.1326 17.6999 40.9305 17.6224 40.722 17.628C40.2 17.604 39.69 17.616 39.174 17.616Z" fill="#6656B8"></path>
</svg>
