<?xml version="1.0" encoding="UTF-8"?>
<svg xmlns="http://www.w3.org/2000/svg" width="48" height="48" viewBox="0 0 48 48" fill="none">
  <g clip-path="url(#clip0_139_5596)">
    <path d="M40.8001 44.514L34.9201 38.904L36.6421 37.242L40.6201 41.268C43.8399 37.3886 45.6091 32.5095 45.6241 27.468H40.5001V25.086H45.5041C44.9875 20.337 42.9112 15.8933 39.6001 12.45L36.1501 15.936L34.3801 14.244L37.8001 10.8C34.2374 7.84683 29.8206 6.11584 25.2001 5.86202C25.2001 6.11402 25.1701 6.31201 25.1701 6.51001C25.1701 8.10002 25.1701 9.69601 25.1701 11.31C25.1701 11.718 25.0741 11.91 24.6361 11.862C24.1866 11.832 23.7356 11.832 23.2861 11.862C22.8901 11.862 22.7701 11.736 22.7761 11.346C22.7761 9.71401 22.7761 8.08201 22.7761 6.45001C22.7761 6.28801 22.7761 6.12001 22.7401 5.88601C18.1426 6.14315 13.7482 7.86517 10.2001 10.8L13.7341 14.316L12.0661 15.996L8.55607 12.462C6.07207 13.932 2.55607 21.276 2.55607 25.062H7.20007V27.408H2.40007C2.38394 32.2616 4.00296 36.9792 6.99607 40.8L10.4281 37.344L12.1501 39L6.87607 44.16C-1.14593 36.534 -3.09593 21.81 6.14407 11.4C15.2281 1.20001 31.5301 0.798014 41.0881 10.602C50.9161 20.682 49.7581 36.078 40.8001 44.514Z" fill="#6656B8"></path>
    <path d="M17.688 36.6C17.8558 36.1364 18.0563 35.6852 18.288 35.25C18.744 34.494 19.26 33.78 19.758 33.054C19.9311 32.7857 20.1656 32.5625 20.4421 32.4028C20.7185 32.2432 21.0291 32.1517 21.348 32.136C26.024 31.72 30.708 31.288 35.4 30.84C36.276 30.756 37.158 30.666 38.034 30.594C38.91 30.522 39.684 30.846 39.834 31.47C39.984 32.094 39.6 32.778 38.7 33.186C33.7 35.494 28.7 37.804 23.7 40.116C23.3451 40.3082 22.9468 40.4058 22.5433 40.3995C22.1398 40.3932 21.7447 40.2832 21.396 40.08C20.706 39.696 19.998 39.354 19.278 39.042C18.228 38.58 17.844 37.74 17.688 36.6ZM20.088 36.78C20.832 37.146 21.504 37.452 22.158 37.806C22.2826 37.8824 22.4259 37.9228 22.572 37.9228C22.7181 37.9228 22.8614 37.8824 22.986 37.806C25.87 36.47 28.758 35.138 31.65 33.81C31.776 33.75 31.89 33.666 32.01 33.594C30.936 33.594 29.898 33.708 28.86 33.804L22.2 34.404C21.984 34.404 21.69 34.452 21.6 34.59C21.072 35.298 20.61 36 20.088 36.792V36.78Z" fill="#6656B8"></path>
  </g>
  <defs>
    <clipPath id="clip0_139_5596">
      <rect width="48" height="48" fill="white"></rect>
    </clipPath>
  </defs>
</svg>
