<?xml version="1.0" encoding="UTF-8"?>
<svg xmlns="http://www.w3.org/2000/svg" width="48" height="48" viewBox="0 0 48 48" fill="none">
  <g clip-path="url(#clip0_139_5581)">
    <path d="M-0.000103516 3.378C0.0538965 3.216 0.113896 3.06 0.161896 2.904C0.398955 2.07957 0.893898 1.35277 1.57416 0.830154C2.25442 0.307539 3.08422 0.0166032 3.9419 2.25846e-07C4.5419 2.25846e-07 5.0999 2.25846e-07 5.6759 2.25846e-07H43.7999C44.806 -0.0606604 45.7979 0.26115 46.5768 0.900943C47.3557 1.54074 47.864 2.45124 47.9999 3.45C48.0213 3.71557 48.0213 3.98243 47.9999 4.248C47.9999 14.748 47.9999 25.246 47.9999 35.742C48.033 36.3103 47.9455 36.8793 47.7432 37.4114C47.5408 37.9436 47.2283 38.4269 46.826 38.8298C46.4237 39.2326 45.9408 39.5458 45.409 39.7489C44.8771 39.952 44.3083 40.0403 43.7399 40.008H42.0359V37.992H43.1999C43.5599 37.992 43.9199 37.992 44.2799 37.992C44.6963 37.973 45.0932 37.8101 45.4029 37.5311C45.7126 37.2521 45.9158 36.8742 45.9779 36.462C46.022 36.1842 46.042 35.9032 46.0379 35.622C46.0379 25.222 46.0379 14.822 46.0379 4.422C46.0344 4.14633 46.0083 3.87141 45.9599 3.6C45.9147 3.20245 45.7356 2.83209 45.4521 2.54971C45.1687 2.26733 44.7976 2.08971 44.3999 2.046C44.1537 2.00911 43.9048 1.99306 43.6559 1.998C30.5599 1.998 17.4659 1.998 4.3739 1.998C4.11488 1.99582 3.8561 2.01387 3.5999 2.052C3.2163 2.09969 2.85911 2.27249 2.58361 2.54365C2.30812 2.81481 2.12967 3.1692 2.0759 3.552C2.03703 3.79804 2.01897 4.04692 2.0219 4.296C2.0219 14.76 2.0219 25.226 2.0219 35.694C2.02075 35.9592 2.04082 36.224 2.0819 36.486C2.15051 36.8819 2.34964 37.2435 2.64757 37.5132C2.9455 37.7829 3.32509 37.9451 3.7259 37.974C3.9599 37.974 4.1939 37.974 4.4279 37.974H17.9999V39.99H4.3139C3.32137 40.0633 2.33695 39.7658 1.55113 39.1551C0.765312 38.5444 0.233959 37.6639 0.0598965 36.684C0.0425486 36.6416 0.0204044 36.6013 -0.00610352 36.564L-0.000103516 3.378Z" fill="#6656B8"></path>
    <path d="M22.032 48C22.032 47.784 22.032 47.562 22.032 47.346C22.032 42.066 22.032 36.788 22.032 31.512C22.0381 31.3514 22.009 31.1914 21.9468 31.0432C21.8846 30.895 21.7908 30.7622 21.672 30.654C20.3032 29.3383 19.266 27.7167 18.6459 25.9223C18.0257 24.1278 17.8401 22.2118 18.1044 20.3318C18.3687 18.4517 19.0754 16.6611 20.1663 15.1072C21.2572 13.5534 22.7012 12.2805 24.3797 11.3933C26.0582 10.506 27.9233 10.0297 29.8217 10.0035C31.7201 9.97723 33.5977 10.4018 35.3001 11.2423C37.0024 12.0829 38.4811 13.3153 39.6145 14.8384C40.748 16.3616 41.5038 18.1319 41.82 20.004C42.48 24.132 41.22 27.672 38.346 30.654C38.2287 30.7634 38.136 30.8965 38.0739 31.0444C38.0119 31.1923 37.9819 31.3517 37.986 31.512C37.986 36.784 37.986 42.062 37.986 47.346C37.986 47.562 37.986 47.784 37.986 48H37.896C37.8302 47.939 37.76 47.8828 37.686 47.832C35.222 46.604 32.76 45.38 30.3 44.16C30.1985 44.1169 30.0893 44.0947 29.979 44.0947C29.8687 44.0947 29.7595 44.1169 29.658 44.16C27.258 45.36 24.858 46.56 22.422 47.76C22.3183 47.8224 22.2182 47.8905 22.122 47.964L22.032 48ZM30 31.992C31.9768 31.9896 33.9084 31.4012 35.5508 30.3011C37.1932 29.201 38.4725 27.6387 39.2271 25.8116C39.9817 23.9845 40.1776 21.9747 39.79 20.0363C39.4025 18.0979 38.4489 16.3179 37.0499 14.9214C35.6508 13.5249 33.8691 12.5745 31.93 12.1905C29.9909 11.8064 27.9815 12.0059 26.1558 12.7638C24.33 13.5216 22.77 14.8038 21.6729 16.4481C20.5758 18.0925 19.9908 20.0252 19.992 22.002C19.9816 23.3183 20.2335 24.6235 20.7329 25.8415C21.2324 27.0594 21.9695 28.1656 22.9012 29.0956C23.8328 30.0256 24.9404 30.7607 26.1592 31.258C27.378 31.7553 28.6837 32.0048 30 31.992ZM24 44.778C24.186 44.688 24.336 44.628 24.486 44.55C26.214 43.692 27.942 42.816 29.676 41.976C29.7758 41.9342 29.8828 41.9127 29.991 41.9127C30.0991 41.9127 30.2062 41.9342 30.306 41.976C32.058 42.828 33.798 43.704 35.544 44.574L35.958 44.766V32.43C34.1318 33.4576 32.0706 33.995 29.975 33.9897C27.8795 33.9845 25.8211 33.4368 24 32.4V44.778Z" fill="#6656B8"></path>
    <path d="M6 15.978V14.022H15.978V15.978H6Z" fill="#6656B8"></path>
    <path d="M13.962 20.028V21.978H6V20.028H13.962Z" fill="#6656B8"></path>
    <path d="M19.9681 8.034V9.978H14.0281V8.034H19.9681Z" fill="#6656B8"></path>
    <path d="M6 9.966V8.028H9.942V9.966H6Z" fill="#6656B8"></path>
    <path d="M30.0299 16.008C31.2173 16.014 32.3763 16.3722 33.36 17.0372C34.3438 17.7022 35.1081 18.6442 35.5561 19.7438C36.0042 20.8435 36.1159 22.0514 35.8771 23.2146C35.6383 24.3778 35.0597 25.4439 34.2146 26.2781C33.3695 27.1123 32.2959 27.6769 31.1297 27.9005C29.9636 28.1242 28.7572 27.9968 27.6635 27.5344C26.5698 27.0721 25.6378 26.2956 24.9856 25.3032C24.3335 24.3109 23.9904 23.1474 23.9999 21.96C23.9908 21.1692 24.1411 20.3847 24.4419 19.6534C24.7427 18.922 25.1878 18.2587 25.7507 17.7032C26.3135 17.1476 26.9825 16.7112 27.7177 16.42C28.4529 16.1287 29.2393 15.9886 30.0299 16.008ZM30.0299 25.992C30.82 25.9884 31.5913 25.7507 32.2463 25.309C32.9013 24.8672 33.4107 24.2412 33.71 23.51C34.0093 22.7788 34.0852 21.9753 33.928 21.201C33.7708 20.4267 33.3876 19.7164 32.8269 19.1599C32.2661 18.6033 31.5529 18.2254 30.7775 18.0741C30.0021 17.9227 29.1992 18.0046 28.4702 18.3094C27.7413 18.6142 27.1191 19.1282 26.6823 19.7866C26.2454 20.4449 26.0135 21.2179 26.0159 22.008C26.0238 23.0622 26.446 24.071 27.1915 24.8164C27.9369 25.5619 28.9457 25.9841 29.9999 25.992H30.0299Z" fill="#6656B8"></path>
  </g>
  <defs>
    <clipPath id="clip0_139_5581">
      <rect width="48" height="48" fill="white"></rect>
    </clipPath>
  </defs>
</svg>
