<?xml version="1.0" encoding="UTF-8"?>
<svg xmlns="http://www.w3.org/2000/svg" width="65" height="64" viewBox="0 0 65 64" fill="none">
  <path d="M32.875 33.9125L28.775 45.875H28.7625L25.5875 55.0125C25.8125 55.075 26.025 55.125 26.25 55.1875H26.2875C28.306 55.7257 30.386 55.9989 32.475 56C33.5169 56.0077 34.5576 55.9325 35.5875 55.775C36.9657 55.6022 38.3254 55.3052 39.65 54.8875C39.975 54.7875 40.3 54.675 40.625 54.5625C40.275 53.8125 39.525 52.15 39.4875 52.075L32.875 33.9125Z" fill="#21759B"></path>
  <path d="M10.6 22.5625C9.35 25.3875 8.5 28.8625 8.5 32C8.5 32.7875 8.5375 33.575 8.6125 34.35C9.475 43.25 15.225 50.725 23.125 54.0875C23.45 54.225 23.7875 54.3625 24.125 54.4875L12.5 22.575C11.5 22.5375 11.3125 22.6 10.6 22.5625Z" fill="#21759B"></path>
  <path d="M54.275 21.925C53.7372 20.7673 53.1059 19.6553 52.3875 18.6C52.1875 18.3 51.9625 18 51.75 17.7C49.0415 14.0647 45.3634 11.2661 41.1375 9.62503C38.3812 8.54689 35.4471 7.99568 32.4875 8.00003C28.9022 8.00011 25.3627 8.80551 22.1304 10.3568C18.8981 11.908 16.0555 14.1655 13.8125 16.9625C13 17.9697 12.2685 19.0398 11.625 20.1625C13.4 20.175 15.6 20.175 15.85 20.175C18.1125 20.175 21.6 19.9 21.6 19.9C22.775 19.825 22.9 21.5375 21.7375 21.675C21.7375 21.675 20.5625 21.8125 19.2625 21.875L27.125 45.25L31.85 31.0875L28.5 21.8875C27.325 21.825 26.2375 21.6875 26.2375 21.6875C25.0625 21.625 25.2125 19.8375 26.3625 19.9125C26.3625 19.9125 29.925 20.1875 32.05 20.1875C34.3125 20.1875 37.8 19.9125 37.8 19.9125C38.9625 19.8375 39.1125 21.55 37.9375 21.6875C37.9375 21.6875 36.775 21.825 35.475 21.8875L43.2625 45.0875L45.425 37.8875C46.5125 35.0875 47.0625 32.775 47.0625 30.925C47.0625 28.2625 46.1 26.4125 45.275 24.975C44.1875 23.1875 43.1625 21.6875 43.1625 19.925C43.1625 17.9375 44.6625 16.0875 46.7875 16.0875H47.0625C50.3375 16 51.4125 19.25 51.55 21.4625V21.5375C51.6 22.4375 51.5625 23.1 51.5625 23.8875C51.5625 26.0625 51.15 28.525 49.925 31.6125L45.05 45.7125L42.2625 53.925C42.4875 53.825 42.7 53.725 42.925 53.6125C50.0125 50.1875 55.175 43.3625 56.2625 35.275C56.4237 34.1993 56.5031 33.1128 56.5 32.025C56.5047 28.5363 55.7453 25.0888 54.275 21.925Z" fill="#21759B"></path>
  <path d="M32.5 6C38.4985 6.00309 44.3116 8.07965 48.9544 11.8779C53.5972 15.6761 56.7843 20.9625 57.9759 26.8415C59.1674 32.7205 58.29 38.8307 55.4924 44.1369C52.6948 49.4431 48.149 53.6191 42.625 55.9575C36.2711 58.6428 29.1107 58.6941 22.7189 56.1C16.3272 53.5059 11.2278 48.4789 8.5425 42.125C5.85718 35.7711 5.80594 28.6107 8.40003 22.2189C10.9941 15.8272 16.0211 10.7278 22.375 8.0425C25.5781 6.68712 29.0219 5.99241 32.5 6ZM32.5 4C17.0363 4 4.5 16.5363 4.5 32C4.5 47.4637 17.0363 60 32.5 60C47.9637 60 60.5 47.4637 60.5 32C60.5 16.5363 47.9637 4 32.5 4Z" fill="#21759B"></path>
</svg>
