<?xml version="1.0" encoding="UTF-8"?>
<svg xmlns="http://www.w3.org/2000/svg" width="80" height="80" viewBox="0 0 80 80" fill="none">
  <g clip-path="url(#clip0_81_5205)">
    <path d="M52.34 0C57.13 2.81 61.93 5.6 66.7 8.45C67.4607 8.87739 68.0306 9.57791 68.2943 10.4097C68.5579 11.2415 68.4956 12.1424 68.12 12.93C67.12 15.68 66.01 18.41 64.93 21.14C64.8332 21.3298 64.7887 21.5418 64.801 21.7545C64.8133 21.9671 64.882 22.1727 65 22.35C65.84 23.73 66.63 25.13 67.39 26.55C67.4737 26.7517 67.6112 26.9265 67.7876 27.0553C67.964 27.1841 68.1724 27.2618 68.39 27.28C71.02 27.64 73.64 28.06 76.27 28.42C78.9 28.78 80 30 80 32.61V47.37C80 49.9 78.83 51.21 76.32 51.54C74.42 51.79 72.52 52.09 70.61 52.36C70.2767 52.4415 69.9262 52.4158 69.6084 52.2866C69.2906 52.1573 69.0217 51.931 68.84 51.64C68.6462 51.3895 68.5411 51.0817 68.5411 50.765C68.5411 50.4483 68.6462 50.1405 68.84 49.89C69.2213 49.4785 69.721 49.1955 70.27 49.08C72.11 48.74 73.96 48.49 75.82 48.26C76.48 48.18 76.69 47.91 76.69 47.26C76.69 42.42 76.69 37.5767 76.69 32.73C76.69 32.02 76.43 31.79 75.77 31.73C72.77 31.33 69.77 30.86 66.77 30.45C66.3323 30.4036 65.9154 30.2397 65.5633 29.9756C65.2112 29.7115 64.9371 29.3572 64.77 28.95C63.77 27.06 62.77 25.2 61.64 23.39C61.4007 23.0445 61.2539 22.6434 61.2136 22.225C61.1733 21.8066 61.241 21.3848 61.41 21C62.59 18.06 63.73 15.1 64.89 12.15C65.05 11.73 65.17 11.42 64.66 11.15C60.4 8.65 56.16 6.15 51.91 3.6C51.8242 3.56073 51.7333 3.5338 51.64 3.52L46.64 9.81C46.16 10.42 45.64 11.03 45.19 11.65C45.001 11.9342 44.7354 12.1592 44.424 12.299C44.1126 12.4388 43.768 12.4877 43.43 12.44C41.1328 12.1451 38.8072 12.1451 36.51 12.44C36.145 12.478 35.7768 12.4106 35.4489 12.2458C35.121 12.0809 34.8472 11.8256 34.66 11.51C32.88 9 31 6.61 29.22 4.21C29.03 3.96 28.83 3.72 28.62 3.44C28.37 3.57 28.14 3.68 27.93 3.8C23.83 6.17 19.74 8.56 15.63 10.9C15.4993 10.9456 15.3807 11.0205 15.2833 11.1188C15.1858 11.2172 15.1121 11.3365 15.0678 11.4676C15.0234 11.5988 15.0096 11.7383 15.0273 11.8756C15.045 12.0129 15.0938 12.1444 15.17 12.26C16.33 15.13 17.42 18.02 18.58 20.89C18.7584 21.3034 18.8254 21.7563 18.7746 22.2036C18.7237 22.651 18.5566 23.0772 18.29 23.44C17.18 25.22 16.15 27.06 15.19 28.93C15.0314 29.3248 14.7694 29.6696 14.4316 29.9283C14.0938 30.1869 13.6925 30.3499 13.27 30.4C10.27 30.81 7.27 31.29 4.32 31.69C3.62 31.78 3.32 31.99 3.32 32.75C3.32 37.5633 3.32 42.3767 3.32 47.19C3.32 47.94 3.58 48.19 4.32 48.27C7.32 48.66 10.24 49.13 13.2 49.54C13.6422 49.594 14.0615 49.7666 14.4136 50.0394C14.7656 50.3123 15.0374 50.6753 15.2 51.09C16.1072 52.9044 17.1086 54.6701 18.2 56.38C18.5079 56.7746 18.7024 57.2458 18.7623 57.7427C18.8222 58.2396 18.7453 58.7435 18.54 59.2C17.35 62.09 16.26 65.01 15.11 67.91C14.94 68.36 14.92 68.64 15.41 68.91C19.62 71.39 23.82 73.91 28.02 76.4C28.1271 76.4591 28.2373 76.5125 28.35 76.56L30.35 74C31.77 72.2 33.21 70.42 34.6 68.6C34.8372 68.2623 35.1585 67.9924 35.5321 67.817C35.9057 67.6416 36.3186 67.5668 36.73 67.6C38.91 67.66 41.09 67.66 43.27 67.6C43.6724 67.5704 44.0756 67.6473 44.4389 67.8228C44.8022 67.9984 45.113 68.2664 45.34 68.6C47.34 71.25 49.34 73.87 51.34 76.6L54.69 74.79C55.0484 74.5833 55.4229 74.4061 55.81 74.26C56.1577 74.1388 56.5366 74.1413 56.8828 74.267C57.2289 74.3927 57.5211 74.6339 57.71 74.95C57.9085 75.2662 57.9845 75.6441 57.9237 76.0125C57.8629 76.3809 57.6696 76.7143 57.38 76.95C55.8357 77.9979 54.2183 78.9337 52.54 79.75C51.8377 80.0307 51.0591 80.0553 50.3405 79.8195C49.6219 79.5836 49.0093 79.1023 48.61 78.46C46.87 76.19 45.13 73.91 43.42 71.62C43.3098 71.4291 43.1507 71.271 42.9591 71.1621C42.7676 71.0531 42.5504 70.9971 42.33 71C40.77 71.0533 39.21 71.0533 37.65 71C37.437 70.9781 37.2221 71.0161 37.0295 71.1097C36.8369 71.2034 36.6743 71.3489 36.56 71.53C34.92 73.72 33.26 75.89 31.56 78.06C29.86 80.23 28.3 80.45 26.06 79.12L13.76 71.82C11.62 70.55 11.1 69 12 66.68C13 64.04 14 61.4 15.09 58.77C15.1766 58.5871 15.2139 58.3848 15.1981 58.183C15.1823 57.9813 15.114 57.7872 15 57.62C14.2 56.29 13.4 54.95 12.69 53.56C12.5845 53.3028 12.4083 53.0808 12.1817 52.9197C11.9552 52.7587 11.6876 52.6651 11.41 52.65C8.94 52.31 6.48 51.84 4 51.59C3.09657 51.5977 2.21566 51.3082 1.49289 50.7662C0.770118 50.2241 0.245568 49.4594 0 48.59L0 31.39C0.250008 30.5231 0.775711 29.7613 1.49749 29.22C2.21926 28.6786 3.09779 28.3873 4 28.39C6.48 28.13 8.95 27.7 11.41 27.3C11.8195 27.2497 12.1948 27.046 12.46 26.73C13.35 25.29 14.13 23.8 14.99 22.35C15.1072 22.1846 15.179 21.9914 15.1983 21.7897C15.2176 21.5879 15.1837 21.3846 15.1 21.2C14.06 18.58 13 16 12 13.35C11.09 11.01 11.64 9.35 13.77 8.12C17.46 5.93 21.14 3.73 24.84 1.55C25.84 0.99 26.84 0.55 27.79 0H29.04C30.2028 0.391943 31.1951 1.17237 31.85 2.21C33.42 4.3 35 6.36 36.61 8.41C36.848 8.68049 37.1811 8.84883 37.54 8.88C39.18 8.88 40.81 8.88 42.45 8.88C42.8095 8.85089 43.1433 8.68218 43.38 8.41C45 6.34 46.61 4.26 48.16 2.15C48.8132 1.14035 49.7899 0.382333 50.93 0L52.34 0Z" fill="#D1CCEA"></path>
    <path d="M40 23.32C42.191 23.3674 44.348 23.8712 46.3333 24.7993C48.3186 25.7274 50.0885 27.0593 51.53 28.71C53.8913 31.014 55.558 33.9349 56.34 37.14C56.5635 38.3136 56.6773 39.5054 56.68 40.7C56.6794 42.9123 57.5443 45.0371 59.09 46.62C61.14 48.77 63.26 50.84 65.36 52.94C69.36 56.94 73.36 60.88 77.28 64.87C78.9933 66.4295 80.0169 68.6057 80.1257 70.9199C80.2345 73.2341 79.4195 75.4967 77.86 77.21C76.3005 78.9233 74.1243 79.9469 71.8101 80.0557C69.4959 80.1645 67.2333 79.3495 65.52 77.79C65.19 77.5 64.87 77.19 64.52 76.88C57.8267 70.1733 51.1267 63.4533 44.42 56.72C44.2369 56.5099 43.9968 56.3574 43.7288 56.2811C43.4607 56.2048 43.1763 56.2079 42.91 56.29C39.2766 56.9552 35.5252 56.3889 32.2501 54.6807C28.9751 52.9726 26.3638 50.2203 24.83 46.86C23.7817 44.4993 23.2825 41.9315 23.37 39.35C23.43 37.63 24.74 36.89 26.22 37.76C28.9933 39.4133 31.7567 41.08 34.51 42.76C34.6684 42.8841 34.8638 42.9515 35.065 42.9515C35.2662 42.9515 35.4616 42.8841 35.62 42.76C36.7247 42.0884 37.6735 41.1888 38.4029 40.1214C39.1323 39.054 39.6257 37.8432 39.85 36.57C39.9045 36.3722 39.8848 36.1614 39.7945 35.9771C39.7042 35.7929 39.5497 35.6481 39.36 35.57C36.3 33.71 33.25 31.87 30.2 30C28.6 29 28.54 27.82 30.02 26.71C32.889 24.5239 36.393 23.3336 40 23.32ZM26.83 42C27.02 42.79 27.13 43.43 27.33 44C28.3316 47.2168 30.5349 49.9235 33.4815 51.557C36.4282 53.1905 39.8912 53.625 43.15 52.77C43.6655 52.5991 44.2208 52.5889 44.7422 52.7407C45.2637 52.8925 45.7267 53.1991 46.07 53.62C53.0033 60.6 59.9567 67.56 66.93 74.5C67.2462 74.8185 67.5801 75.1189 67.93 75.4C68.5987 75.9316 69.3846 76.2961 70.2224 76.463C71.0602 76.63 71.9257 76.5947 72.7471 76.36C73.5685 76.1253 74.3221 75.698 74.9452 75.1136C75.5684 74.5293 76.0431 73.8047 76.33 73C76.6801 71.9705 76.7149 70.8599 76.4298 69.8106C76.1448 68.7612 75.5529 67.8208 74.73 67.11C69 61.34 63.26 55.57 57.5 49.85C56.1176 48.5857 55.0248 47.0375 54.2964 45.3115C53.5681 43.5855 53.2213 41.7225 53.28 39.85C53.2769 39.1113 53.1829 38.3757 53 37.66C52.3152 35.0839 50.9308 32.7477 49 30.91C45.21 27 40.76 25.63 35.5 27.48C34.94 27.68 34.41 27.97 33.73 28.27C36.66 30.03 39.42 31.7 42.19 33.34C42.5573 33.5199 42.8607 33.808 43.0591 34.1657C43.2576 34.5233 43.3417 34.9331 43.3 35.34C43.01 40.46 40.46 44.06 35.91 46.34C35.6185 46.5088 35.2862 46.5944 34.9494 46.5873C34.6126 46.5803 34.2842 46.4809 34 46.3L30.92 44.46L26.83 42Z" fill="#6656B8"></path>
  </g>
  <defs>
    <clipPath id="clip0_81_5205">
      <rect width="80" height="80" fill="white"></rect>
    </clipPath>
  </defs>
</svg>
