<?xml version="1.0" encoding="UTF-8"?>
<svg xmlns="http://www.w3.org/2000/svg" width="48" height="48" viewBox="0 0 48 48" fill="none">
  <g clip-path="url(#clip0_139_5570)">
    <path d="M34.86 37.2V46.566H38.238C38.4255 46.548 38.6144 46.548 38.802 46.566C38.9681 46.5927 39.1193 46.6778 39.2284 46.8059C39.3375 46.934 39.3974 47.0967 39.3974 47.265C39.3974 47.4333 39.3375 47.596 39.2284 47.7241C39.1193 47.8522 38.9681 47.9373 38.802 47.964C38.6697 47.9905 38.5349 48.0026 38.4 48H27.564C27.514 48.003 27.4639 48.003 27.414 48C26.88 48 26.55 47.706 26.562 47.268C26.574 46.83 26.886 46.578 27.402 46.578C28.44 46.578 29.478 46.578 30.516 46.578H31.116V37.2H28.92C28.5917 37.2287 28.2609 37.1918 27.947 37.0914C27.6331 36.991 27.3424 36.8292 27.0916 36.6153C26.8409 36.4014 26.6352 36.1398 26.4866 35.8456C26.338 35.5515 26.2494 35.2307 26.226 34.902C25.95 33.168 25.692 31.44 25.422 29.706C25.422 29.562 25.362 29.412 25.326 29.25H22.662C22.494 30.294 22.33 31.334 22.17 32.37C22.026 33.276 21.9 34.17 21.75 35.094C21.6657 35.6725 21.3776 36.202 20.9376 36.587C20.4976 36.972 19.9346 37.1872 19.35 37.194C18.534 37.194 17.724 37.194 16.884 37.194V46.566H17.43C18.498 46.566 19.572 46.566 20.646 46.566C20.7448 46.5569 20.8445 46.5685 20.9386 46.6001C21.0327 46.6317 21.1192 46.6826 21.1926 46.7495C21.2659 46.8164 21.3245 46.8979 21.3646 46.9887C21.4047 47.0795 21.4254 47.1777 21.4254 47.277C21.4254 47.3763 21.4047 47.4745 21.3646 47.5653C21.3245 47.6561 21.2659 47.7376 21.1926 47.8045C21.1192 47.8714 21.0327 47.9223 20.9386 47.9539C20.8445 47.9855 20.7448 47.9971 20.646 47.988C16.882 47.996 13.122 48 9.36598 48C9.26708 48.0067 9.16786 47.9928 9.07463 47.9591C8.98141 47.9254 8.89622 47.8727 8.8245 47.8043C8.75277 47.7358 8.69608 47.6532 8.65804 47.5617C8.61999 47.4702 8.60142 47.3717 8.60351 47.2726C8.6056 47.1735 8.62831 47.0759 8.67018 46.9861C8.71205 46.8962 8.77218 46.8161 8.84672 46.7507C8.92127 46.6854 9.00861 46.6363 9.10317 46.6065C9.19773 46.5768 9.29745 46.5671 9.39598 46.578C10.452 46.578 11.508 46.578 12.564 46.578H13.164V37.2H11.124C9.37198 37.2 8.51998 36.498 8.23198 34.8C7.94398 33.102 7.70998 31.47 7.45198 29.808C7.45198 29.64 7.39798 29.478 7.36198 29.286H6.59998C6.41398 30.324 6.22798 31.374 6.04198 32.424C5.18198 37.328 4.31998 42.25 3.45598 47.19C3.34798 47.79 3.12598 47.994 2.48398 47.994C1.94398 47.994 1.39798 47.994 0.851977 47.994C0.305976 47.994 -0.0540235 47.676 -2.34717e-05 47.052C0.293977 44.568 0.599977 42.084 0.863977 39.6C1.26398 36.204 1.65198 32.804 2.02798 29.4C2.03245 29.3301 2.03245 29.2599 2.02798 29.19C1.61998 29.19 1.21798 29.19 0.827977 29.19C0.71933 29.2082 0.607942 29.201 0.50253 29.169C0.397118 29.137 0.30054 29.0811 0.220354 29.0055C0.140167 28.93 0.0785476 28.8369 0.0403159 28.7336C0.00208416 28.6303 -0.0117224 28.5195 -2.34717e-05 28.41C-2.34717e-05 27.37 -2.34717e-05 26.332 -2.34717e-05 25.296C-2.34717e-05 24.75 0.287977 24.51 0.899977 24.51H7.12798C7.43998 23.088 7.72798 21.684 8.06398 20.28C8.15998 19.848 8.24398 19.41 8.35798 18.984C8.47994 18.4397 8.78458 17.9535 9.22122 17.6064C9.65786 17.2593 10.2002 17.0721 10.758 17.076C13.578 17.076 16.402 17.076 19.23 17.076C19.8422 17.0738 20.4341 17.2951 20.8947 17.6983C21.3554 18.1015 21.6531 18.6589 21.732 19.266C22.086 20.862 22.434 22.452 22.782 24.066C22.818 24.21 22.86 24.354 22.902 24.51H25.092C25.476 22.776 25.86 21.054 26.238 19.332C26.3091 18.6696 26.6391 18.0621 27.156 17.6418C27.6729 17.2215 28.335 17.0225 28.998 17.088H36.972C37.6356 17.0242 38.2976 17.2246 38.8143 17.6459C39.331 18.0671 39.6608 18.6751 39.732 19.338C40.104 21.048 40.488 22.758 40.878 24.528H47.034C47.772 24.528 48 24.762 48 25.512C48 26.448 48 27.384 48 28.32C48 28.968 47.748 29.214 47.112 29.22H45.96C46.116 30.606 46.26 31.938 46.41 33.27C46.81 36.738 47.21 40.202 47.61 43.662C47.736 44.748 47.856 45.828 47.988 46.908C48.066 47.7 47.82 48 47.004 48C46.512 48 46.02 48 45.522 48C44.88 48 44.658 47.82 44.55 47.208C44.196 45.198 43.854 43.188 43.5 41.208C42.816 37.272 42.128 33.336 41.436 29.4C41.4189 29.3566 41.3989 29.3145 41.376 29.274H40.632C40.506 30.084 40.374 30.918 40.242 31.752C40.068 32.874 39.906 34.002 39.72 35.124C39.6294 35.6977 39.3387 36.2208 38.8995 36.6007C38.4602 36.9807 37.9007 37.1929 37.32 37.2C36.912 37.2 36.504 37.2 36.12 37.2H34.86ZM32.952 35.772H36.834C37.95 35.772 38.226 35.526 38.394 34.41C38.724 32.244 39.066 30.072 39.396 27.906C39.6279 26.9228 39.6666 25.9039 39.51 24.906C39.09 23.106 38.706 21.306 38.31 19.536C38.2998 19.386 38.259 19.2397 38.19 19.1062C38.121 18.9727 38.0253 18.8547 37.9089 18.7596C37.7924 18.6646 37.6577 18.5944 37.5131 18.5536C37.3684 18.5127 37.2169 18.5019 37.068 18.522C34.356 18.522 31.648 18.522 28.944 18.522C28.7906 18.4992 28.6342 18.5088 28.4848 18.5501C28.3354 18.5914 28.1963 18.6636 28.0765 18.7619C27.9566 18.8603 27.8587 18.9826 27.7891 19.1211C27.7194 19.2596 27.6795 19.4112 27.672 19.566C27.276 21.366 26.862 23.112 26.472 24.894C26.3576 25.4181 26.3333 25.9578 26.4 26.49C26.784 29.22 27.216 31.938 27.648 34.662C27.774 35.46 28.122 35.736 28.926 35.742L32.952 35.772ZM15.012 35.772H18.846C19.986 35.772 20.25 35.52 20.424 34.374C20.712 32.454 21.024 30.546 21.3 28.626C21.462 27.456 21.822 26.292 21.558 25.086C21.132 23.196 20.73 21.3 20.304 19.41C20.2554 19.1375 20.1035 18.8942 19.8799 18.731C19.6563 18.5678 19.3783 18.4972 19.104 18.534C16.38 18.534 13.658 18.534 10.938 18.534C10.7949 18.5191 10.6503 18.5325 10.5124 18.5737C10.3746 18.6148 10.2462 18.6827 10.1347 18.7736C10.0232 18.8645 9.93077 18.9765 9.86269 19.1032C9.7946 19.2299 9.75222 19.3689 9.73798 19.512C9.33598 21.312 8.91598 23.112 8.53798 24.912C8.40623 25.4229 8.3596 25.952 8.39998 26.478C8.79598 29.22 9.22798 31.956 9.65998 34.692C9.66212 34.8478 9.69796 35.0013 9.76502 35.1419C9.83208 35.2826 9.92878 35.407 10.0485 35.5068C10.1682 35.6066 10.308 35.6792 10.4585 35.7198C10.6089 35.7604 10.7663 35.768 10.92 35.742L15.012 35.772ZM42.864 29.232C43.884 35.04 44.886 40.788 45.864 46.542H46.464C45.81 40.758 45.156 35.004 44.502 29.232H42.864ZM2.11198 46.542L5.11198 29.238H3.47998L1.51798 46.542H2.11198ZM6.91198 25.974H1.45798V27.774H7.12798L6.91198 25.974ZM46.548 25.974H41.088L40.878 27.774H46.548V25.974ZM14.634 37.2V46.53H15.402V37.2H14.634ZM33.366 46.548V37.2H32.604V46.548H33.366ZM23.112 25.956L22.902 27.756H25.104L24.882 25.956H23.112Z" fill="#6656B8"></path>
    <path d="M14.298 2.82C14.298 2.136 14.298 1.494 14.298 0.846C14.31 0.336 14.574 0 15 0C15.426 0 15.732 0.318 15.738 0.846C15.738 1.494 15.738 2.136 15.738 2.754C16.0709 2.82372 16.3894 2.94951 16.68 3.126C16.9317 3.36491 17.0999 3.67829 17.16 4.02C17.28 4.95 17.286 5.886 17.388 6.816C17.4192 7.10615 17.5483 7.37703 17.754 7.584C18.828 8.556 19.926 9.492 21.024 10.44C21.306 10.686 21.552 10.944 21.402 11.358C21.252 11.772 20.904 11.85 20.496 11.85C16.844 11.85 13.188 11.85 9.52804 11.85C9.12004 11.85 8.77204 11.778 8.62204 11.352C8.47204 10.926 8.72404 10.68 9.00604 10.44C10.104 9.492 11.208 8.556 12.276 7.584C12.4818 7.37703 12.6109 7.10615 12.642 6.816C12.738 5.97 12.75 5.118 12.828 4.272C12.912 3.276 13.248 2.952 14.298 2.82ZM11.256 10.392H18.72C17.52 9.24 16.458 7.932 14.52 8.364C14.2844 8.38209 14.0477 8.38209 13.812 8.364C13.678 8.36038 13.546 8.39809 13.434 8.472C12.75 9.084 12.048 9.702 11.256 10.392ZM14.256 4.308L14.076 6.912H15.948L15.774 4.308H14.256Z" fill="#6656B8"></path>
    <path d="M32.274 2.808C32.274 2.172 32.274 1.524 32.274 0.882C32.28 0.336 32.55 0 33 0C33.45 0 33.72 0.324 33.726 0.864C33.726 1.506 33.726 2.154 33.726 2.79C34.926 3.036 35.118 3.27 35.22 4.44C35.286 5.202 35.334 5.97 35.358 6.732C35.3526 6.90762 35.3883 7.08208 35.4623 7.24146C35.5362 7.40084 35.6464 7.54073 35.784 7.65C36.882 8.568 37.95 9.516 39.03 10.452C39.318 10.698 39.552 10.962 39.396 11.37C39.24 11.778 38.886 11.85 38.484 11.85C34.844 11.85 31.204 11.85 27.564 11.85C27.162 11.85 26.802 11.808 26.634 11.388C26.466 10.968 26.724 10.686 27.018 10.428C28.116 9.486 29.214 8.544 30.288 7.578C30.4671 7.37572 30.5765 7.12119 30.6 6.852C30.69 6.024 30.702 5.19 30.774 4.356C30.888 3.276 31.2 3 32.274 2.808ZM36.744 10.386C36.2857 10.0216 35.847 9.63302 35.43 9.222C35.1333 8.91754 34.7744 8.68062 34.3778 8.52738C33.9813 8.37414 33.5563 8.30818 33.132 8.334C32.6136 8.27807 32.0893 8.34691 31.603 8.53478C31.1166 8.72265 30.6822 9.02411 30.336 9.414C29.9924 9.76242 29.6255 10.0872 29.238 10.386H36.744ZM32.232 4.308L32.052 6.9H33.924L33.75 4.308H32.232Z" fill="#6656B8"></path>
  </g>
  <defs>
    <clipPath id="clip0_139_5570">
      <rect width="48" height="48" fill="white"></rect>
    </clipPath>
  </defs>
</svg>
