<?xml version="1.0" encoding="UTF-8"?>
<svg xmlns="http://www.w3.org/2000/svg" width="80" height="80" viewBox="0 0 80 80" fill="none">
  <path d="M70.29 56.19C73.1504 57.2571 75.6264 59.1551 77.4 61.64C78.2042 62.8081 78.875 64.0626 79.4 65.38C79.738 66.1532 79.8747 66.9994 79.7976 67.8398C79.7204 68.6801 79.4318 69.4872 78.9586 70.186C78.4855 70.8847 77.8432 71.4523 77.0916 71.836C76.3399 72.2196 75.5034 72.4068 74.66 72.38C69.7733 72.38 64.88 72.38 59.98 72.38C59.7144 72.3416 59.4437 72.3989 59.2165 72.5419C58.9893 72.6848 58.8204 72.9039 58.74 73.16C58.3085 74.2635 57.5487 75.208 56.5634 75.8661C55.5781 76.5242 54.4146 76.8641 53.23 76.84C44.39 76.8933 35.5533 76.8933 26.72 76.84C25.5365 76.8584 24.3756 76.5149 23.3927 75.8555C22.4098 75.196 21.6518 74.2521 21.22 73.15C21.1503 72.9044 20.9951 72.6917 20.7824 72.5505C20.5696 72.4093 20.3134 72.3488 20.06 72.38C15.26 72.38 10.46 72.38 5.66 72.38C1.58 72.38 -0.750001 69.26 0.519999 65.38C1.66 61.85 4.21 59.44 7.21 57.46C7.95 56.98 8.77 56.62 9.63 56.16C8.34442 55.153 7.35006 53.8219 6.74902 52.3035C6.14799 50.7851 5.96194 49.1341 6.21 47.52C6.49878 45.2743 7.64113 43.2259 9.4 41.8C11.2074 40.3012 13.52 39.551 15.8631 39.7035C18.2062 39.856 20.4021 40.8995 22 42.62C22.8576 43.5554 23.5146 44.6565 23.9307 45.8553C24.3468 47.0542 24.5131 48.3255 24.4194 49.5911C24.3257 50.8567 23.974 52.0897 23.386 53.2142C22.7979 54.3387 21.9859 55.331 21 56.13C22 56.73 23.14 57.25 24.13 57.93C25.12 58.61 25.98 59.4 26.78 60.05L33.52 56.19C31.8951 55.0958 30.5807 53.5999 29.7046 51.8477C28.8285 50.0955 28.4204 48.1465 28.52 46.19C28.5543 44.672 28.9026 43.1775 29.5428 41.8007C30.183 40.4239 31.1014 39.1945 32.24 38.19C33.3585 37.1689 34.6681 36.3794 36.0934 35.867C37.5186 35.3547 39.0311 35.1297 40.5438 35.205C42.0564 35.2803 43.5391 35.6544 44.9064 36.3058C46.2737 36.9572 47.4985 37.8728 48.51 39C49.6049 40.2218 50.4279 41.6622 50.9246 43.2258C51.4213 44.7894 51.5803 46.4406 51.3913 48.0703C51.2022 49.6999 50.6693 51.2709 49.8279 52.6793C48.9864 54.0876 47.8555 55.3013 46.51 56.24L53.12 60L58.93 56C57.6336 54.9646 56.6487 53.5911 56.084 52.0311C55.5193 50.471 55.3968 48.7853 55.73 47.16C56.0777 44.9346 57.275 42.9307 59.07 41.57C60.9425 40.2076 63.2459 39.5713 65.5523 39.7791C67.8586 39.9869 70.0112 41.0248 71.61 42.7C72.4355 43.6606 73.0579 44.7785 73.4397 45.9862C73.8215 47.1939 73.9547 48.4664 73.8314 49.7269C73.708 50.9875 73.3306 52.2101 72.722 53.3208C72.1134 54.4316 71.2861 55.4076 70.29 56.19ZM40 74H52.7C55.63 74 57.08 71.89 56.02 69.17C54.7591 65.9343 52.5478 63.1564 49.6772 61.202C46.8067 59.2477 43.4115 58.2086 39.9388 58.2216C36.4662 58.2346 33.0789 59.299 30.223 61.2748C27.3671 63.2506 25.1766 66.045 23.94 69.29C22.94 71.87 24.41 74 27.17 74C31.44 74 35.71 74 40 74ZM48.65 46.75C48.679 45.6071 48.4748 44.4703 48.0501 43.4088C47.6254 42.3474 46.989 41.3835 46.1796 40.5761C45.3703 39.7686 44.405 39.1344 43.3426 38.7121C42.2801 38.2899 41.1428 38.0884 40 38.12C38.3052 38.1259 36.6501 38.6337 35.2435 39.5792C33.8369 40.5247 32.7418 41.8656 32.0965 43.4327C31.4511 44.9999 31.2843 46.723 31.6171 48.3849C31.9499 50.0467 32.7674 51.5727 33.9666 52.7705C35.1657 53.9682 36.6927 54.784 38.3549 55.1148C40.0171 55.4457 41.7401 55.2769 43.3065 54.6297C44.8729 53.9825 46.2125 52.8859 47.1564 51.4782C48.1002 50.0705 48.606 48.4148 48.61 46.72L48.65 46.75ZM55.26 62.25C56 63.37 56.79 64.38 57.4 65.49C58.01 66.6 58.4 67.87 59.01 69.04C59.1088 69.1765 59.2358 69.29 59.3825 69.3729C59.5293 69.4557 59.6921 69.5059 59.86 69.52C64.78 69.52 69.7 69.52 74.62 69.52C75.0069 69.5689 75.3997 69.5117 75.7566 69.3545C76.1134 69.1973 76.4207 68.946 76.6457 68.6275C76.8707 68.3091 77.0049 67.9354 77.0338 67.5465C77.0627 67.1577 76.9854 66.7683 76.81 66.42C75.8919 63.943 74.2265 61.8127 72.0443 60.3239C69.8622 58.8351 67.2712 58.0614 64.63 58.11C62.8574 58.0514 61.0941 58.39 59.4694 59.1012C57.8446 59.8124 56.3995 60.878 55.24 62.22L55.26 62.25ZM24.84 62.33C24.58 62.05 24.38 61.8 24.15 61.58C21.8834 59.3516 18.8286 58.1081 15.65 58.12C12.9387 58.0165 10.2651 58.78 8.01725 60.2995C5.76943 61.819 4.06449 64.0155 3.15 66.57C3.01212 66.8946 2.9582 67.2486 2.9932 67.5995C3.0282 67.9504 3.151 68.2868 3.35027 68.5778C3.54954 68.8687 3.81886 69.1048 4.13339 69.2642C4.44793 69.4236 4.79755 69.5013 5.15 69.49C10.21 69.49 15.28 69.49 20.34 69.49C20.4738 69.4808 20.6033 69.4386 20.7167 69.367C20.8302 69.2954 20.9241 69.1968 20.99 69.08C21.8156 66.5933 23.1163 64.2907 24.82 62.3L24.84 62.33ZM71 48.84C70.935 47.206 70.2402 45.6606 69.0611 44.5275C67.8821 43.3944 66.3103 42.7616 64.675 42.7616C63.0397 42.7616 61.4679 43.3944 60.2888 44.5275C59.1098 45.6606 58.415 47.206 58.35 48.84C58.3658 50.519 59.0439 52.1239 60.2368 53.3055C61.4297 54.4872 63.0409 55.1501 64.72 55.15C66.3891 55.1447 67.9879 54.4773 69.1654 53.2942C70.3428 52.1111 71.0027 50.5091 71 48.84ZM21.56 48.84C21.5679 47.5843 21.2021 46.3545 20.5092 45.3073C19.8162 44.26 18.8274 43.4425 17.6686 42.9587C16.5097 42.475 15.2331 42.3468 14.0013 42.5906C12.7694 42.8344 11.6378 43.4391 10.7506 44.3278C9.86332 45.2165 9.26043 46.349 9.0186 47.5812C8.77678 48.8135 8.90694 50.0898 9.39253 51.2479C9.87812 52.406 10.6972 53.3935 11.7456 54.0848C12.794 54.7761 14.0243 55.1399 15.28 55.13C16.1082 55.1313 16.9285 54.9693 17.694 54.6533C18.4595 54.3373 19.1552 53.8735 19.7412 53.2883C20.3273 52.7032 20.7923 52.0082 21.1095 51.2432C21.4267 50.4782 21.59 49.6582 21.59 48.83L21.56 48.84Z" fill="#B3ABDC"></path>
  <path d="M25.77 17.43C25.77 14.2 25.77 10.97 25.77 7.73999C25.7224 7.1303 25.8069 6.51753 26.0178 5.94351C26.2287 5.36948 26.561 4.84773 26.992 4.41389C27.423 3.98004 27.9426 3.64432 28.5152 3.42965C29.0878 3.21497 29.7 3.1264 30.31 3.16999H49.69C50.3009 3.12997 50.9133 3.22116 51.4861 3.43745C52.0588 3.65374 52.5786 3.99012 53.0106 4.42397C53.4425 4.85782 53.7766 5.3791 53.9904 5.95278C54.2042 6.52646 54.2927 7.13926 54.25 7.74999C54.25 14.1967 54.25 20.6533 54.25 27.12C54.2881 27.7235 54.1973 28.3281 53.9836 28.8938C53.77 29.4595 53.4383 29.9732 53.0107 30.4007C52.5832 30.8283 52.0695 31.1599 51.5038 31.3736C50.9382 31.5873 50.3335 31.6781 49.73 31.64H30.26C29.6574 31.6803 29.0531 31.5907 28.4881 31.3774C27.923 31.164 27.4104 30.8319 26.9847 30.4034C26.5591 29.9749 26.2304 29.4601 26.0208 28.8936C25.8113 28.3272 25.7257 27.7223 25.77 27.12C25.76 23.89 25.77 20.66 25.77 17.43ZM39.88 28.8H49.49C50.93 28.8 51.4 28.33 51.4 26.88V7.99999C51.4 6.48999 50.93 5.99999 49.49 5.99999H30.49C29.09 5.99999 28.64 6.45999 28.64 7.87999V26.88C28.64 28.33 29.08 28.76 30.57 28.76L39.88 28.8Z" fill="#6656B8"></path>
  <path d="M38.53 20.91L45.39 11.51C46.28 10.29 46.98 10.02 47.78 10.57C48.58 11.12 48.59 11.96 47.7 13.19L40.15 23.52C39.21 24.8 38.44 24.87 37.33 23.76L32.43 18.86L32.18 18.6C32.0127 18.4762 31.8738 18.3182 31.7726 18.1364C31.6714 17.9546 31.6102 17.7532 31.5932 17.5458C31.5761 17.3384 31.6036 17.1298 31.6738 16.9339C31.7439 16.738 31.8552 16.5594 32 16.41C32.1433 16.2675 32.3157 16.1577 32.5054 16.0882C32.6952 16.0186 32.8977 15.991 33.0991 16.0072C33.3005 16.0233 33.4961 16.0829 33.6723 16.1817C33.8485 16.2806 34.0013 16.4165 34.12 16.58C35.35 17.78 36.55 19 37.77 20.22L38.53 20.91Z" fill="#6656B8"></path>
</svg>
