<?xml version="1.0" encoding="UTF-8"?>
<svg xmlns="http://www.w3.org/2000/svg" width="80" height="80" viewBox="0 0 80 80" fill="none">
  <g clip-path="url(#clip0_174_5352)">
    <path d="M40 80C32.0888 80 24.3552 77.6541 17.7772 73.2588C11.1992 68.8635 6.07234 62.6164 3.04484 55.3074C0.0173314 47.9983 -0.774802 39.9556 0.768607 32.1964C2.31202 24.4372 6.12165 17.3098 11.7157 11.7157C17.3098 6.12165 24.4372 2.31202 32.1964 0.768607C39.9556 -0.774802 47.9983 0.0173314 55.3074 3.04484C62.6164 6.07234 68.8635 11.1992 73.2588 17.7772C77.6541 24.3552 80 32.0888 80 40C80 50.6087 75.7857 60.7828 68.2843 68.2843C60.7828 75.7857 50.6087 80 40 80ZM40 2.00002C32.4843 2.00002 25.1374 4.22868 18.8883 8.40417C12.6393 12.5797 7.76873 18.5145 4.8926 25.458C2.01647 32.4016 1.26394 40.0422 2.73018 47.4135C4.19642 54.7847 7.81556 61.5557 13.13 66.8701C18.4444 72.1845 25.2153 75.8036 32.5866 77.2699C39.9579 78.7361 47.5984 77.9836 54.542 75.1074C61.4856 72.2313 67.4204 67.3608 71.5959 61.1117C75.7714 54.8626 78 47.5157 78 40C78 29.9218 73.9965 20.2563 66.8701 13.13C59.7437 6.00358 50.0782 2.00002 40 2.00002Z" fill="#6656B8"></path>
    <path d="M30.3201 52.65V50.65L38.6401 41.49C40.2701 39.7 41.6401 38.22 42.6401 37.05C43.5269 36.075 44.2986 35.0013 44.9401 33.85C45.4488 32.8893 45.71 31.817 45.7001 30.73C45.7494 29.9717 45.6357 29.2116 45.3666 28.5009C45.0975 27.7903 44.6793 27.1455 44.1401 26.61C42.9962 25.6162 41.5138 25.1005 40.0001 25.17C38.366 25.1184 36.7682 25.6581 35.5001 26.69C34.2212 27.7883 33.3421 29.2793 33.0001 30.93L30.0801 30.29C30.3912 28.7618 31.048 27.3252 32.0001 26.09C32.9021 24.9219 34.067 23.9831 35.4001 23.35C36.8251 22.6767 38.3841 22.3349 39.9601 22.35C41.586 22.3111 43.1956 22.6825 44.6401 23.43C45.9615 24.1235 47.0626 25.1728 47.8189 26.4592C48.5753 27.7457 48.9567 29.2181 48.9201 30.71C48.9222 31.8277 48.6834 32.9328 48.2201 33.95C47.6526 35.1475 46.9478 36.2751 46.1201 37.31C45.1934 38.51 43.9934 39.91 42.5201 41.51L34.9601 49.83H49.6801V52.63L30.3201 52.65Z" fill="#6656B8"></path>
  </g>
  <defs>
    <clipPath id="clip0_174_5352">
      <rect width="80" height="80" fill="white"></rect>
    </clipPath>
  </defs>
</svg>
