<?xml version="1.0" encoding="UTF-8"?>
<svg xmlns="http://www.w3.org/2000/svg" width="80" height="80" viewBox="0 0 80 80" fill="none">
  <g clip-path="url(#clip0_174_5355)">
    <path d="M40 80C32.0888 80 24.3552 77.6541 17.7772 73.2588C11.1992 68.8635 6.07234 62.6164 3.04484 55.3074C0.0173314 47.9983 -0.774802 39.9556 0.768607 32.1964C2.31202 24.4372 6.12165 17.3098 11.7157 11.7157C17.3098 6.12165 24.4372 2.31202 32.1964 0.768607C39.9556 -0.774802 47.9983 0.0173314 55.3074 3.04484C62.6164 6.07234 68.8635 11.1992 73.2588 17.7772C77.6541 24.3552 80 32.0888 80 40C80 50.6087 75.7857 60.7828 68.2843 68.2843C60.7828 75.7857 50.6087 80 40 80ZM40 2.00002C32.4843 2.00002 25.1374 4.22868 18.8883 8.40417C12.6393 12.5797 7.76873 18.5145 4.8926 25.458C2.01647 32.4016 1.26394 40.0422 2.73018 47.4135C4.19642 54.7847 7.81556 61.5557 13.13 66.8701C18.4444 72.1845 25.2153 75.8036 32.5866 77.2699C39.9579 78.7361 47.5984 77.9836 54.542 75.1074C61.4856 72.2313 67.4204 67.3608 71.5959 61.1117C75.7714 54.8626 78 47.5157 78 40C78 29.9218 73.9965 20.2563 66.8701 13.13C59.7437 6.00358 50.0782 2.00002 40 2.00002Z" fill="#6656B8"></path>
    <path d="M39.5802 55.14C38.1151 55.1538 36.6613 54.8821 35.3002 54.34C34.0053 53.8238 32.8338 53.0404 31.862 52.0411C30.8902 51.0417 30.14 49.8488 29.6602 48.54L32.2202 47.34C32.7824 48.8301 33.7912 50.1102 35.1086 51.0051C36.426 51.9001 37.9877 52.3663 39.5802 52.34C40.8115 52.3625 42.031 52.0953 43.1402 51.56C44.157 51.0615 45.0053 50.2757 45.5802 49.3C46.1958 48.2025 46.5001 46.9578 46.4602 45.7C46.4987 44.4399 46.1871 43.1938 45.5602 42.1C44.977 41.1288 44.1216 40.3499 43.1002 39.86C41.9877 39.3365 40.7695 39.0764 39.5402 39.1C39.1902 39.1 38.8102 39.1 38.4002 39.1C38.065 39.1225 37.7312 39.1626 37.4002 39.22L36.7602 37.82L44.7602 27.62H31.0602V24.82H48.3802V27.62L40.8602 37.1L40.4602 36.58C42.127 36.5967 43.7633 37.0298 45.2202 37.84C46.569 38.5929 47.694 39.6902 48.4802 41.02C49.289 42.4302 49.697 44.0347 49.6602 45.66C49.6811 47.3362 49.2407 48.9859 48.3871 50.4286C47.5334 51.8713 46.2995 53.0515 44.8202 53.84C43.214 54.7158 41.4094 55.1635 39.5802 55.14Z" fill="#6656B8"></path>
  </g>
  <defs>
    <clipPath id="clip0_174_5355">
      <rect width="80" height="80" fill="white"></rect>
    </clipPath>
  </defs>
</svg>
