<?xml version="1.0" encoding="UTF-8"?>
<svg xmlns="http://www.w3.org/2000/svg" width="80" height="80" viewBox="0 0 80 80" fill="none">
  <g clip-path="url(#clip0_174_5343)">
    <path d="M40 80C32.0888 80 24.3552 77.6541 17.7772 73.2588C11.1992 68.8635 6.07234 62.6164 3.04484 55.3074C0.0173314 47.9983 -0.774802 39.9556 0.768607 32.1964C2.31202 24.4372 6.12165 17.3098 11.7157 11.7157C17.3098 6.12165 24.4372 2.31202 32.1964 0.768607C39.9556 -0.774802 47.9983 0.0173314 55.3074 3.04484C62.6164 6.07234 68.8635 11.1992 73.2588 17.7772C77.6541 24.3552 80 32.0888 80 40C80 50.6087 75.7857 60.7828 68.2843 68.2843C60.7828 75.7857 50.6087 80 40 80ZM40 2.00002C32.4843 2.00002 25.1374 4.22868 18.8883 8.40417C12.6393 12.5797 7.76873 18.5145 4.8926 25.458C2.01647 32.4016 1.26394 40.0422 2.73018 47.4135C4.19642 54.7847 7.81556 61.5557 13.13 66.8701C18.4444 72.1845 25.2153 75.8036 32.5866 77.2699C39.9579 78.7361 47.5984 77.9836 54.542 75.1074C61.4856 72.2313 67.4204 67.3608 71.5959 61.1117C75.7714 54.8626 78 47.5157 78 40C78 29.9218 73.9965 20.2563 66.8701 13.13C59.7437 6.00358 50.0782 2.00002 40 2.00002Z" fill="#6656B8"></path>
    <path d="M39.8197 54.9V27.9H34.2197V25.1H42.9997V54.9H39.8197Z" fill="#6656B8"></path>
  </g>
  <defs>
    <clipPath id="clip0_174_5343">
      <rect width="80" height="80" fill="white"></rect>
    </clipPath>
  </defs>
</svg>
