<?xml version="1.0" encoding="UTF-8"?>
<svg xmlns="http://www.w3.org/2000/svg" width="80" height="80" viewBox="0 0 80 80" fill="none">
  <g clip-path="url(#clip0_81_5217)">
    <path d="M0 75V4.85005C0.1 4.62005 0.22 4.39005 0.3 4.15005C0.718498 3.02223 1.44591 2.03494 2.39908 1.30106C3.35224 0.56718 4.49268 0.116324 5.69 4.52495e-05H74.18C74.4914 -0.00161054 74.8013 0.0421843 75.1 0.130045C76.5506 0.517247 77.8261 1.38672 78.7167 2.59539C79.6073 3.80405 80.0599 5.2799 80 6.78005C80 28.88 80 50.98 80 73.08C79.9963 74.1468 79.7644 75.2003 79.32 76.17C78.7847 77.3782 77.8918 78.3932 76.7617 79.078C75.6316 79.7629 74.3187 80.0847 73 80C67.7 80 62.4 80 57.1 80H7C5.21117 80.0686 3.46201 79.4617 2.1 78.3C1.14528 77.3845 0.424985 76.2527 0 75ZM2.51 13.23V72.8C2.51 75.73 4.13 77.33 7.08 77.33H72.75C75.75 77.33 77.33 75.73 77.33 72.74V13.23H2.51ZM2.51 10.45H77.33V7.27005C77.33 4.05005 75.8 2.51005 72.6 2.51005H7.25C6.93 2.51005 6.62 2.51005 6.31 2.51005C5.32314 2.56572 4.39184 2.98481 3.6957 3.6865C2.99955 4.38819 2.58785 5.32278 2.54 6.31005C2.47 7.68005 2.52 9.00004 2.52 10.45H2.51Z" fill="#D1CCEA"></path>
    <path d="M6.59 5.22H9.17V7.78H6.59V5.22Z" fill="#D1CCEA"></path>
    <path d="M11.91 7.78001V5.23001H14.5V7.78001H11.91Z" fill="#D1CCEA"></path>
    <path d="M17.26 7.78999V5.20999H19.82V7.78999H17.26Z" fill="#D1CCEA"></path>
    <path d="M40.32 46.83L36.79 57.15L34 65L34.58 65.15C36.3224 65.6123 38.1173 65.8476 39.92 65.85C40.8169 65.8571 41.713 65.7936 42.6 65.66C43.7907 65.5092 44.9655 65.2515 46.11 64.89L46.95 64.61L46 62.5L40.32 46.83Z" fill="#6656B8"></path>
    <path d="M21.1 37C19.9596 39.5689 19.3442 42.3399 19.29 45.15C19.2892 45.8179 19.3225 46.4855 19.39 47.15C19.7605 50.846 21.1183 54.3743 23.321 57.3652C25.5238 60.3561 28.4904 62.6996 31.91 64.15L32.77 64.5L22.77 36.96C21.88 37 21.72 37.07 21.1 37Z" fill="#6656B8"></path>
    <path d="M58.79 36.48C58.3251 35.484 57.78 34.5275 57.16 33.62C56.99 33.36 56.8 33.1 56.61 32.84C54.276 29.6914 51.1011 27.2651 47.45 25.84C45.075 24.9185 42.5474 24.4537 40 24.47C36.3375 24.4814 32.7432 25.4615 29.5819 27.3108C26.4206 29.1602 23.8048 31.813 22 35H25.64C27.59 35 30.64 34.77 30.64 34.77C30.8332 34.7709 31.0189 34.8444 31.1604 34.9759C31.302 35.1073 31.3889 35.2872 31.404 35.4798C31.4191 35.6723 31.3613 35.8636 31.242 36.0155C31.1227 36.1674 30.9507 36.269 30.76 36.3C30.76 36.3 29.76 36.42 28.63 36.47L35.41 56.64L39.49 44.42L36.6 36.48C35.6 36.43 34.65 36.31 34.65 36.31C34.4607 36.2797 34.2894 36.1798 34.1698 36.0299C34.0503 35.8799 33.9909 35.6908 34.0034 35.4995C34.0159 35.3081 34.0994 35.1283 34.2375 34.9952C34.3755 34.8622 34.5583 34.7854 34.75 34.78C34.75 34.78 37.83 35.02 39.66 35.02C41.49 35.02 44.66 34.78 44.66 34.78C44.8532 34.7809 45.0389 34.8544 45.1804 34.9859C45.322 35.1173 45.4089 35.2972 45.424 35.4898C45.4391 35.6823 45.3813 35.8736 45.262 36.0255C45.1427 36.1774 44.9707 36.279 44.78 36.31C44.78 36.31 43.78 36.43 42.66 36.48L49.38 56.48L51.24 50.27C52.0671 48.3706 52.548 46.3386 52.66 44.27C52.6075 42.4304 52.0316 40.644 51 39.12C50.07 37.57 49.18 36.28 49.18 34.76C49.1585 33.9066 49.4756 33.0795 50.0621 32.4592C50.6486 31.839 51.4568 31.4761 52.31 31.45H52.55C55.37 31.37 56.3 34.18 56.42 36.09V36.15C56.42 36.93 56.42 37.5 56.42 38.15C56.3835 40.4508 55.9013 42.7227 55 44.84L50.83 57L48.42 64.1L49 63.83C52.0738 62.3434 54.7329 60.1205 56.7408 57.3589C58.7488 54.5973 60.0435 51.3824 60.51 48C60.6466 47.0696 60.7134 46.1303 60.71 45.19C60.715 42.1811 60.0596 39.2079 58.79 36.48Z" fill="#6656B8"></path>
    <path d="M40 22.74C45.5583 22.748 50.9155 24.8205 55.0321 28.5553C59.1487 32.2901 61.7312 37.4209 62.2786 42.9522C62.826 48.4835 61.2991 54.0209 57.9943 58.4901C54.6895 62.9593 49.8425 66.0415 44.3935 67.1388C38.9446 68.236 33.2823 67.2701 28.5053 64.4284C23.7283 61.5867 20.1772 57.0718 18.541 51.7598C16.9048 46.4477 17.3001 40.7172 19.6503 35.6802C22.0005 30.6432 26.138 26.6588 31.26 24.5C34.0263 23.3347 36.9983 22.7362 40 22.74ZM40 21C35.2225 21 30.5522 22.4165 26.5795 25.0703C22.6068 27.7242 19.5102 31.4963 17.681 35.9098C15.8518 40.3233 15.3722 45.18 16.3028 49.866C17.2334 54.5521 19.5324 58.857 22.9092 62.2366C26.2861 65.6163 30.5891 67.9189 35.2744 68.8533C39.9596 69.7878 44.8168 69.3122 49.2318 67.4867C53.6468 65.6611 57.4214 62.5676 60.0786 58.5971C62.7357 54.6267 64.156 49.9575 64.16 45.18C64.1626 42.0056 63.5396 38.8618 62.3267 35.9282C61.1137 32.9947 59.3345 30.329 57.0908 28.0834C54.847 25.8378 52.1828 24.0564 49.2503 22.841C46.3177 21.6256 43.1744 21 40 21Z" fill="#6656B8"></path>
  </g>
  <defs>
    <clipPath id="clip0_81_5217">
      <rect width="80" height="80" fill="white"></rect>
    </clipPath>
  </defs>
</svg>
