<svg xmlns="http://www.w3.org/2000/svg" width="59" height="33" viewBox="0 0 59 33"><g transform="translate(-389 -337)"><g transform="translate(407 342)"><path d="M10.16,13.24H2.68A.68.68,0,0,1,2,12.56V1.68A.68.68,0,0,1,2.68,1h7.48a.68.68,0,0,1,.68.68V12.56A.68.68,0,0,1,10.16,13.24Z" fill="#577E9C"/><path d="M10.16,27.8H2.68A.68.68,0,0,1,2,27.12V21.68A.68.68,0,0,1,2.68,21h7.48a.68.68,0,0,1,.68.68v5.44A.68.68,0,0,1,10.16,27.8Z" transform="translate(0 -6.4)" fill="#577E9C"/><path d="M25.16,7.8H17.68A.68.68,0,0,1,17,7.12V1.68A.68.68,0,0,1,17.68,1h7.48a.68.68,0,0,1,.68.68V7.12A.68.68,0,0,1,25.16,7.8Z" transform="translate(-4.8)" fill="#577E9C"/><path d="M25.16,25.24H17.68a.68.68,0,0,1-.68-.68V13.68a.68.68,0,0,1,.68-.68h7.48a.68.68,0,0,1,.68.68V24.56A.68.68,0,0,1,25.16,25.24Z" transform="translate(-4.8 -3.84)" fill="#577E9C"/></g></g></svg>
