<?xml version="1.0" encoding="UTF-8" standalone="no"?>
<!DOCTYPE svg PUBLIC "-//W3C//DTD SVG 1.1//EN" "http://www.w3.org/Graphics/SVG/1.1/DTD/svg11.dtd">
<svg width="100%" height="100%" viewBox="0 0 17 17" version="1.1" xmlns="http://www.w3.org/2000/svg" xmlns:xlink="http://www.w3.org/1999/xlink" xml:space="preserve" xmlns:serif="http://www.serif.com/" style="fill-rule:evenodd;clip-rule:evenodd;stroke-linejoin:round;stroke-miterlimit:2;">
    <g transform="matrix(0.68315,0,0,0.68315,2.69918,2.74356)">
        <path d="M9,2.025L9,1L10.5,1L10.5,0L6.5,0L6.5,1L8,1L8,2.025C4.098,2.285 1,5.533 1,9.5C1,13.636 4.364,17 8.5,17C12.636,17 16,13.636 16,9.5C16,5.533 12.902,2.285 9,2.025ZM8.5,16C4.916,16 2,13.084 2,9.5C2,5.916 4.916,3 8.5,3C12.084,3 15,5.916 15,9.5C15,13.084 12.084,16 8.5,16ZM9,9L13,9L13,10L8,10L8,6L9,6L9,9Z" style="fill:#386689;fill-rule:nonzero;"/>
    </g>
</svg>
