<svg viewBox="0 0 17 17" xmlns="http://www.w3.org/2000/svg"><path d="m2.591 11.041c-.375 0-.693-.074-.955-.225-.253-.15-.454-.341-.602-.575-.141-.235-.225-.487-.253-.758h.926c.038.234.137.417.295.547.159.122.356.183.59.183.347 0 .628-.159.842-.478.208-.309.321-.79.34-1.446-.122.215-.31.393-.563.534-.253.14-.523.21-.814.21-.299 0-.58-.074-.843-.224-.262-.141-.476-.342-.644-.604-.169-.263-.251-.572-.251-.927.001-.327.081-.632.24-.912.16-.271.384-.492.675-.66.281-.179.614-.267.997-.267.403 0 .744.074 1.025.224.271.151.491.352.658.604.169.253.291.534.364.843.075.309.112.627.111.954-.001.6-.086 1.124-.255 1.573-.169.44-.413.782-.732 1.025-.319.253-.702.379-1.151.379zm.032-2.85c.187 0 .361-.042.519-.127.151-.084.271-.196.367-.337.084-.14.126-.299.126-.477.002-.281-.097-.51-.293-.688-.187-.178-.431-.267-.73-.267-.281 0-.52.089-.716.267-.187.178-.281.403-.283.674 0 .291.094.52.28.688.196.178.439.267.73.267zm5.039 2.85c-.401 0-.744-.074-1.025-.225-.281-.15-.505-.351-.672-.603-.169-.253-.29-.534-.364-.843s-.112-.627-.111-.955c.001-.599.086-1.123.256-1.572.168-.44.414-.782.731-1.025.319-.253.708-.379 1.166-.379.365 0 .679.074.94.224.263.151.464.342.603.576.15.235.238.492.266.772h-.926c-.047-.243-.145-.431-.295-.561-.159-.122-.36-.183-.604-.183-.345 0-.622.159-.828.478-.217.309-.329.79-.34 1.446.122-.215.306-.393.549-.534.253-.14.529-.21.828-.21.301 0 .582.074.843.224.262.141.471.342.63.604.169.263.251.572.251.927-.001.327-.08.632-.24.912-.16.271-.38.492-.661.66-.289.179-.622.267-.997.267zm-.055-.856c.291 0 .53-.089.716-.267.189-.178.281-.403.283-.674 0-.291-.093-.52-.28-.688-.196-.178-.439-.267-.73-.267-.187 0-.355.042-.505.126-.159.085-.281.197-.367.337-.084.141-.126.3-.126.478-.002.281.093.51.279.688.197.178.441.267.73.267zm3.967-1.994c-.253 0-.477-.056-.674-.169-.206-.102-.364-.257-.476-.463-.122-.206-.183-.454-.181-.744 0-.281.06-.524.184-.73.112-.207.271-.365.477-.478.197-.112.421-.168.674-.168s.478.056.674.168c.197.113.355.271.478.478.11.206.167.449.167.73-.002.29-.058.538-.17.744-.122.206-.287.361-.493.463-.197.113-.417.169-.66.169zm.656 2.752h-.955l3.055-5.406h.969zm-.655-3.44c.151 0 .277-.056.379-.169.113-.112.169-.285.17-.519 0-.225-.056-.398-.168-.52-.101-.112-.228-.168-.378-.168-.159 0-.29.056-.394.168-.103.122-.155.295-.155.52-.001.234.051.407.153.519.103.113.235.169.393.169zm3.449 3.538c-.243 0-.468-.056-.674-.168-.197-.113-.355-.271-.478-.478-.12-.206-.181-.449-.181-.73.002-.291.062-.533.184-.73.122-.206.282-.365.479-.477.206-.113.435-.169.688-.169.243 0 .463.056.66.169.197.112.354.271.476.477.122.197.182.439.181.73 0 .281-.06.524-.184.73-.122.207-.281.365-.477.478-.197.112-.421.168-.674.168zm0-.688c.15 0 .281-.06.394-.182.103-.113.155-.281.155-.506.001-.234-.051-.407-.153-.519-.113-.123-.243-.183-.393-.183-.159 0-.291.06-.394.183-.102.112-.154.285-.155.519 0 .225.052.393.154.506.101.122.233.182.392.182z" fill="#ffffff" transform="matrix(.999999 -.00172 .00172 .999999 -.01416 .014648)"/></svg>