<?xml version="1.0" encoding="utf-8"?>
<svg viewBox="0 0 17 17" xmlns="http://www.w3.org/2000/svg">
  <path d="M 2.591 11.041 C 2.216 11.041 1.898 10.967 1.636 10.816 C 1.383 10.666 1.182 10.475 1.034 10.241 C 0.893 10.006 0.809 9.754 0.781 9.483 L 1.707 9.483 C 1.745 9.717 1.844 9.9 2.002 10.03 C 2.161 10.152 2.358 10.213 2.592 10.213 C 2.939 10.213 3.22 10.054 3.434 9.735 C 3.642 9.426 3.755 8.945 3.774 8.289 C 3.652 8.504 3.464 8.682 3.211 8.823 C 2.958 8.963 2.688 9.033 2.397 9.033 C 2.098 9.033 1.817 8.959 1.554 8.809 C 1.292 8.668 1.078 8.467 0.91 8.205 C 0.741 7.942 0.659 7.633 0.659 7.278 C 0.66 6.951 0.74 6.646 0.899 6.366 C 1.059 6.095 1.283 5.874 1.574 5.706 C 1.855 5.527 2.188 5.439 2.571 5.439 C 2.974 5.439 3.315 5.513 3.596 5.663 C 3.867 5.814 4.087 6.015 4.254 6.267 C 4.423 6.52 4.545 6.801 4.618 7.11 C 4.693 7.419 4.73 7.737 4.729 8.064 C 4.728 8.664 4.643 9.188 4.474 9.637 C 4.305 10.077 4.061 10.419 3.742 10.662 C 3.423 10.915 3.04 11.041 2.591 11.041 Z M 2.623 8.191 C 2.81 8.191 2.984 8.149 3.142 8.064 C 3.293 7.98 3.413 7.868 3.509 7.727 C 3.593 7.587 3.635 7.428 3.635 7.25 C 3.637 6.969 3.538 6.74 3.342 6.562 C 3.155 6.384 2.911 6.295 2.612 6.295 C 2.331 6.295 2.092 6.384 1.896 6.562 C 1.709 6.74 1.615 6.965 1.613 7.236 C 1.613 7.527 1.707 7.756 1.893 7.924 C 2.089 8.102 2.332 8.191 2.623 8.191 Z M 7.662 11.041 C 7.261 11.041 6.918 10.967 6.637 10.816 C 6.356 10.666 6.132 10.465 5.965 10.213 C 5.796 9.96 5.675 9.679 5.601 9.37 C 5.527 9.061 5.489 8.743 5.49 8.415 C 5.491 7.816 5.576 7.292 5.746 6.843 C 5.914 6.403 6.16 6.061 6.477 5.818 C 6.796 5.565 7.185 5.439 7.643 5.439 C 8.008 5.439 8.322 5.513 8.583 5.663 C 8.846 5.814 9.047 6.005 9.186 6.239 C 9.336 6.474 9.424 6.731 9.452 7.011 L 8.526 7.011 C 8.479 6.768 8.381 6.58 8.231 6.45 C 8.072 6.328 7.871 6.267 7.627 6.267 C 7.282 6.267 7.005 6.426 6.799 6.745 C 6.582 7.054 6.47 7.535 6.459 8.191 C 6.581 7.976 6.765 7.798 7.008 7.657 C 7.261 7.517 7.537 7.447 7.836 7.447 C 8.137 7.447 8.418 7.521 8.679 7.671 C 8.941 7.812 9.15 8.013 9.309 8.275 C 9.478 8.538 9.56 8.847 9.56 9.202 C 9.559 9.529 9.48 9.834 9.32 10.114 C 9.16 10.385 8.94 10.606 8.659 10.774 C 8.37 10.953 8.037 11.041 7.662 11.041 Z M 7.607 10.185 C 7.898 10.185 8.137 10.096 8.323 9.918 C 8.512 9.74 8.604 9.515 8.606 9.244 C 8.606 8.953 8.513 8.724 8.326 8.556 C 8.13 8.378 7.887 8.289 7.596 8.289 C 7.409 8.289 7.241 8.331 7.091 8.415 C 6.932 8.5 6.81 8.612 6.724 8.752 C 6.64 8.893 6.598 9.052 6.598 9.23 C 6.596 9.511 6.691 9.74 6.877 9.918 C 7.074 10.096 7.318 10.185 7.607 10.185 Z M 11.574 8.191 C 11.321 8.191 11.097 8.135 10.9 8.022 C 10.694 7.92 10.536 7.765 10.424 7.559 C 10.302 7.353 10.241 7.105 10.243 6.815 C 10.243 6.534 10.303 6.291 10.427 6.085 C 10.539 5.878 10.698 5.72 10.904 5.607 C 11.101 5.495 11.325 5.439 11.578 5.439 C 11.831 5.439 12.056 5.495 12.252 5.607 C 12.449 5.72 12.607 5.878 12.73 6.085 C 12.84 6.291 12.897 6.534 12.897 6.815 C 12.895 7.105 12.839 7.353 12.727 7.559 C 12.605 7.765 12.44 7.92 12.234 8.022 C 12.037 8.135 11.817 8.191 11.574 8.191 Z M 12.23 10.943 L 11.275 10.943 L 14.33 5.537 L 15.299 5.537 L 12.23 10.943 Z M 11.575 7.503 C 11.726 7.503 11.852 7.447 11.954 7.334 C 12.067 7.222 12.123 7.049 12.124 6.815 C 12.124 6.59 12.068 6.417 11.956 6.295 C 11.855 6.183 11.728 6.127 11.578 6.127 C 11.419 6.127 11.288 6.183 11.184 6.295 C 11.081 6.417 11.029 6.59 11.029 6.815 C 11.028 7.049 11.08 7.222 11.182 7.334 C 11.285 7.447 11.417 7.503 11.575 7.503 Z M 15.024 11.041 C 14.781 11.041 14.556 10.985 14.35 10.873 C 14.153 10.76 13.995 10.602 13.872 10.395 C 13.752 10.189 13.691 9.946 13.691 9.665 C 13.693 9.374 13.753 9.132 13.875 8.935 C 13.997 8.729 14.157 8.57 14.354 8.458 C 14.56 8.345 14.789 8.289 15.042 8.289 C 15.285 8.289 15.505 8.345 15.702 8.458 C 15.899 8.57 16.056 8.729 16.178 8.935 C 16.3 9.132 16.36 9.374 16.359 9.665 C 16.359 9.946 16.299 10.189 16.175 10.395 C 16.053 10.602 15.894 10.76 15.698 10.873 C 15.501 10.985 15.277 11.041 15.024 11.041 Z M 15.024 10.353 C 15.174 10.353 15.305 10.293 15.418 10.171 C 15.521 10.058 15.573 9.89 15.573 9.665 C 15.574 9.431 15.522 9.258 15.42 9.146 C 15.307 9.023 15.177 8.963 15.027 8.963 C 14.868 8.963 14.736 9.023 14.633 9.146 C 14.531 9.258 14.479 9.431 14.478 9.665 C 14.478 9.89 14.53 10.058 14.632 10.171 C 14.733 10.293 14.865 10.353 15.024 10.353 Z" style="fill: #386689; white-space: pre;" transform="matrix(0.999999, -0.00172, 0.00172, 0.999999, -0.01416, 0.014648)"/>
</svg>