<?xml version="1.0" encoding="utf-8"?>
<svg viewBox="0 0 17 17" xmlns="http://www.w3.org/2000/svg" xmlns:bx="https://boxy-svg.com" transform="scale(0.75)">
  <g/>
  <path d="M 4.972 10.286 L 4.312 10.286 L 4.312 6.806 L 3.632 6.966 L 3.632 6.496 L 4.562 6.086 L 4.972 6.086 L 4.972 10.286 ZM 7.506 10.356 C 7.126 10.356 6.799 10.266 6.526 10.086 C 6.246 9.906 6.033 9.653 5.886 9.326 C 5.746 8.999 5.676 8.619 5.676 8.186 C 5.676 7.753 5.746 7.373 5.886 7.046 C 6.033 6.719 6.246 6.466 6.526 6.286 C 6.799 6.106 7.126 6.016 7.506 6.016 C 7.886 6.016 8.209 6.106 8.476 6.286 C 8.749 6.466 8.959 6.719 9.106 7.046 C 9.253 7.373 9.326 7.753 9.326 8.186 C 9.326 8.619 9.253 8.999 9.106 9.326 C 8.959 9.653 8.749 9.906 8.476 10.086 C 8.209 10.266 7.886 10.356 7.506 10.356 Z M 7.506 9.786 C 7.733 9.786 7.933 9.723 8.106 9.596 C 8.286 9.469 8.426 9.286 8.526 9.046 C 8.626 8.806 8.676 8.519 8.676 8.186 C 8.676 7.853 8.626 7.566 8.526 7.326 C 8.426 7.086 8.286 6.903 8.106 6.776 C 7.933 6.649 7.733 6.586 7.506 6.586 C 7.273 6.586 7.066 6.649 6.886 6.776 C 6.713 6.903 6.576 7.086 6.476 7.326 C 6.376 7.566 6.326 7.853 6.326 8.186 C 6.326 8.519 6.376 8.806 6.476 9.046 C 6.576 9.286 6.713 9.469 6.886 9.596 C 7.066 9.723 7.273 9.786 7.506 9.786 ZM 11.718 10.356 C 11.338 10.356 11.011 10.266 10.738 10.086 C 10.458 9.906 10.245 9.653 10.098 9.326 C 9.958 8.999 9.888 8.619 9.888 8.186 C 9.888 7.753 9.958 7.373 10.098 7.046 C 10.245 6.719 10.458 6.466 10.738 6.286 C 11.011 6.106 11.338 6.016 11.718 6.016 C 12.098 6.016 12.421 6.106 12.688 6.286 C 12.961 6.466 13.171 6.719 13.318 7.046 C 13.465 7.373 13.538 7.753 13.538 8.186 C 13.538 8.619 13.465 8.999 13.318 9.326 C 13.171 9.653 12.961 9.906 12.688 10.086 C 12.421 10.266 12.098 10.356 11.718 10.356 Z M 11.718 9.786 C 11.945 9.786 12.145 9.723 12.318 9.596 C 12.498 9.469 12.638 9.286 12.738 9.046 C 12.838 8.806 12.888 8.519 12.888 8.186 C 12.888 7.853 12.838 7.566 12.738 7.326 C 12.638 7.086 12.498 6.903 12.318 6.776 C 12.145 6.649 11.945 6.586 11.718 6.586 C 11.485 6.586 11.278 6.649 11.098 6.776 C 10.925 6.903 10.788 7.086 10.688 7.326 C 10.588 7.566 10.538 7.853 10.538 8.186 C 10.538 8.519 10.588 8.806 10.688 9.046 C 10.788 9.286 10.925 9.469 11.098 9.596 C 11.278 9.723 11.485 9.786 11.718 9.786 Z" transform="matrix(1, 0, 0, 1, 0, 0)" style="fill: #fff; white-space: pre;"/>
  <path style="fill: #fff" transform="matrix(0.018085, 0, 0, 0.018085, -1.163319, -0.988835)" d="M 898.984 245.42 A 456.067 456.067 0 1 1 406.935 84.308 L 427.067 152.469 A 384.996 384.996 0 1 0 842.437 288.473 Z" bx:shape="pie 536.122 521.696 384.996 456.067 52.715 343.545 1@c6354c14"/>
</svg>